<svg width="90" height="56" viewBox="0 0 90 56" fill="none" xmlns="http://www.w3.org/2000/svg">
<mask id="path-1-outside-1_2_651" maskUnits="userSpaceOnUse" x="0" y="0" width="90" height="56" fill="black">
<rect fill="white" width="90" height="56"/>
<path fill-rule="evenodd" clip-rule="evenodd" d="M7.0218 5.33231L6.3791 5.56661L5.8097 6.29321L5.8968 6.46811L5.2557 7.45621L4.7683 8.37221L4.064 8.85021L4.0977 9.20591L3.8646 9.6202L4.1633 9.92741L4.2122 10.4271L3.6396 10.439L3.6889 11.66L3.0718 12.0981L3.4056 13.1908L3.1351 14.485L2.5449 15.1664L2.5292 15.785L2.1693 16.4656L1.8455 16.7462L1.1528 18.0042L1.0397 18.5824L1.3212 18.9176L1.5851 19.3109L1.5209 19.9019L1.0551 20.511L1 20.8697L1.4749 21.4113L1.656 21.1767L2.4305 20.8544L2.8007 21.1706L2.6938 21.7176L3.0065 22.7832L2.6484 23.2202L2.7303 23.9378L3.1098 23.9045L4.9832 24.5796L5.1884 25.1427L4.8417 25.6126L4.506 25.9158L4.5574 26.1805L4.0834 26.2467L3.6092 26.679L3.6771 27.4831L3.3008 28.6901L3.4278 29.3654L3.2627 29.732L3.8228 30.2899L4.1565 32.1303L4.9102 32.451L4.9096 33.0813L5.4209 33.1561L5.5906 33.3866L6.399 33.1996L6.6247 33.3851L6.8491 34.0852L6.5412 34.7283L6.3784 35.728L6.1903 36.1095L6.1249 36.8132L6.2844 37.0745L6.121 37.5861L6.4805 37.551L6.6227 38.0139L6.5497 38.5401L6.2623 39.0176L6.2553 39.4988L6.25761 41.0584L5.58491 42.9431L6.07531 43.6219L6.03181 44.0053L7.04061 44.6538L7.13841 44.8806L8.29331 45.1788L9.11321 45.6765L9.82151 47.0665L9.83731 47.5436L10.3964 48.0638L10.6904 49.0312L11.2616 49.9329L11.5072 50.9095L12.08 51.4546L12.5973 51.7785L14.356 52.343L15.722 52.9926L15.8694 53.5826L15.3792 53.7744L15.4304 53.991L16.5061 54.6139L16.9184 54.3228L17.4824 54.7136L17.925 54.5631L18.3219 54.6425L19.2896 55.1887L19.4079 55.0517L18.9294 54.5685L18.0949 54.1339L17.5131 53.4908L16.8268 53.0296L16.4319 52.4087L15.7711 51.9899L15.1055 51.3288L14.6918 50.251L13.6559 48.6732L13.2358 48.1973L12.585 46.7239L12.2942 46.4903L11.7318 44.9138L11.1638 43.9369L10.8666 42.1637L10.2861 40.793L9.92411 40.3117L9.55121 39.3126L9.64581 38.1705L9.50871 37.9807L9.82791 37.4876L10.169 37.449L10.1052 36.2583L10.1471 35.5902L9.96939 34.9228L10.0437 34.5588L9.53009 34.3732L9.19719 33.9576L9.37169 33.1911L9.89709 32.4768L9.78469 31.7601L10.1027 31.3603L10.7133 31.2008L10.9279 30.9616L11.6947 31.1408L12.1994 31.0279L13.5759 31.4471L13.9043 31.2758L14.4837 31.4383L14.6187 31.8931L14.9055 31.8379L15.3165 32.1482L16.3469 32.442L18.1261 32.2746L18.4968 32.4944L19.1284 32.327L19.8712 32.5436L20.161 33.175L20.7444 33.4272L21.1892 33.8109L22.2083 33.8476L23.1828 34.203L23.4601 34.163L24.1514 34.4199L24.5639 34.4307L25.857 34.8316L26.4836 34.7278L25.9967 34.2638L24.988 33.8004L24.4073 33.784L23.857 33.5485L23.2365 33.4897L23.0238 33.065L23.3854 32.3056L23.3824 31.3022L23.0637 30.8098L23.2504 30.5433L23.4342 30.1414L23.2461 29.7821L22.8955 29.8803L22.2858 29.6388L21.3909 29.579L20.539 29.0549L19.8517 28.9673L19.0258 28.3628L17.6354 27.9467L16.8871 27.869L16.5956 27.2708L15.866 26.4592L15.7041 26.6125L15.2555 26.2056L14.9078 25.6259L15.0287 25.3163L15.6273 25.1628L15.7967 24.7251L16.363 25.0923L16.8736 25.1705L16.8489 24.9049L16.3476 24.5175L16.3271 24.2829L16.7456 23.8186L17.2731 23.5011L18.1254 23.5183L18.6286 23.1904L19.2222 23.1436L19.5961 22.7917L20.3093 22.4447L20.8267 22.3884L20.9751 22.1237L22.2104 21.1555L23.3245 20.794L23.5319 19.87L23.4584 18.5211L23.9666 17.5204L23.7793 16.9981L24.2849 16.617L24.4407 15.9642L24.3431 15.5347L24.5987 15.0566L24.1861 15.03L23.4779 14.2056L23.3139 13.2273L23.5411 13.1576L23.5598 12.6578L24.1599 12.6977L24.0123 12.0392L23.0424 11.7447L21.9843 12.0642L21.248 12.0742L20.8921 12.4416L20.2628 12.7473L20.0331 12.4378L19.668 12.401L18.6701 12.8305L17.8381 13.3224L17.4265 14.0052L16.6723 14.445L15.7064 14.684L15.2648 15.1398L14.8027 15.2084L14.3587 15.6138L13.546 16.9343L13.0954 17.0271L13.0017 17.691L14.0013 17.5724L14.5927 17.768L14.9195 18.3617L14.8434 19.1146L14.3464 19.8064L13.7002 19.7536L12.0371 19.9552L11.1392 20.4603L11.0719 20.8832L10.6393 21.6436L10.3055 21.893L10.3609 22.3621L10.17 22.5704L10.2676 24.1104L9.60519 24.4986L9.4407 24.9348L8.7575 25.3582L7.9551 25.5148L7.1968 25.3128L6.8755 24.7917L6.4129 24.5475L6.1543 24.0738L5.4974 23.9141L4.9907 22.4271L5.3488 21.8086L5.49839 21.4925L6.4255 21.2398L7.2748 20.7786L7.842 20.1135L8.0213 20.1386L8.4328 19.4221L8.96989 19.289L9.7892 19.3655L9.77259 18.9838L9.9921 18.1708L10.5109 17.7723L10.9881 17.1859L11.0959 16.6421L11.6321 16.5543L11.3628 16.2135L11.2486 15.6342L11.4779 15.1053L11.8845 14.8324L11.6328 14.5844L11.8911 13.8064L12.0777 12.7688L11.9314 11.6881L11.2683 11.3588L11.457 11.1767L11.3152 10.4764L11.8213 10.0405L11.8472 9.7632L11.3215 8.7427L10.7839 8.6339L10.6407 8.2016L10.2286 7.9222L9.5281 8.1428L9.08369 7.9992L8.78979 7.681L8.7183 7.2536L8.9194 6.9321L8.92139 5.8887L9.452 5.4899L10.0722 5.2984L10.6405 4.7487L10.6795 3.9187L11.7061 2.8525L12.5723 1.6566L12.6634 1.2911L12.3965 1.1319L11.7976 1.2116L11.2104 1.488L11.0727 1L10.3737 1.4021L10.2154 1.8237L9.93769 1.8745L9.7131 2.2951L8.6679 3.0191L7.7887 4.1956L7.7452 4.4581L7.0218 5.33231Z"/>
<path d="M3.401 10.0111L3.23 9.47161L2.9839 9.967L3.401 10.0111Z"/>
<path d="M7.03401 44.9979L7.25471 45.8335L6.95761 45.9562L6.88801 45.3746L7.03401 44.9979Z"/>
<path d="M29.024 9.2H32.6L35.336 26H32.696L32.216 22.664V22.712H29.216L28.736 26H26.288L29.024 9.2ZM31.904 20.432L30.728 12.128H30.68L29.528 20.432H31.904Z"/>
<path d="M38.4168 9.2H42.3288C43.6888 9.2 44.6808 9.52 45.3048 10.16C45.9288 10.784 46.2408 11.752 46.2408 13.064V14.096C46.2408 15.84 45.6648 16.944 44.5128 17.408V17.456C45.1528 17.648 45.6008 18.04 45.8568 18.632C46.1288 19.224 46.2648 20.016 46.2648 21.008V23.96C46.2648 24.44 46.2808 24.832 46.3128 25.136C46.3448 25.424 46.4248 25.712 46.5528 26H43.8648C43.7688 25.728 43.7048 25.472 43.6728 25.232C43.6408 24.992 43.6248 24.56 43.6248 23.936V20.864C43.6248 20.096 43.4968 19.56 43.2408 19.256C43.0008 18.952 42.5768 18.8 41.9688 18.8H41.0568V26H38.4168V9.2ZM42.0168 16.4C42.5448 16.4 42.9368 16.264 43.1928 15.992C43.4648 15.72 43.6008 15.264 43.6008 14.624V13.328C43.6008 12.72 43.4888 12.28 43.2648 12.008C43.0568 11.736 42.7208 11.6 42.2568 11.6H41.0568V16.4H42.0168Z"/>
<path d="M49.8965 9.2H52.5365V23.6H56.8805V26H49.8965V9.2Z"/>
<path d="M63.6688 26.24C62.3728 26.24 61.3808 25.872 60.6928 25.136C60.0048 24.4 59.6608 23.36 59.6608 22.016V13.184C59.6608 11.84 60.0048 10.8 60.6928 10.064C61.3808 9.328 62.3728 8.96 63.6688 8.96C64.9648 8.96 65.9568 9.328 66.6448 10.064C67.3328 10.8 67.6768 11.84 67.6768 13.184V22.016C67.6768 23.36 67.3328 24.4 66.6448 25.136C65.9568 25.872 64.9648 26.24 63.6688 26.24ZM63.6688 23.84C64.5808 23.84 65.0368 23.288 65.0368 22.184V13.016C65.0368 11.912 64.5808 11.36 63.6688 11.36C62.7568 11.36 62.3008 11.912 62.3008 13.016V22.184C62.3008 23.288 62.7568 23.84 63.6688 23.84Z"/>
<path d="M73.2324 11.6H70.4724V9.2H78.6324V11.6H75.8724V26H73.2324V11.6Z"/>
<path d="M82.649 9.2H86.225L88.961 26H86.321L85.841 22.664V22.712H82.841L82.361 26H79.913L82.649 9.2ZM85.529 20.432L84.353 12.128H84.305L83.153 20.432H85.529Z"/>
<path d="M26.5 47V35L35.5 29H41V33C41 35.4 37.3333 48 35.5 54V33L30.5 36L26.5 47Z"/>
<path d="M45.024 34.2H48.6L51.336 51H48.696L48.216 47.664V47.712H45.216L44.736 51H42.288L45.024 34.2ZM47.904 45.432L46.728 37.128H46.68L45.528 45.432H47.904Z"/>
<path d="M54.4168 34.2H57.0568V48.6H61.4008V51H54.4168V34.2Z"/>
<path d="M68.3068 51.24C67.0268 51.24 66.0508 50.88 65.3788 50.16C64.7068 49.424 64.3708 48.376 64.3708 47.016V34.2H67.0108V47.208C67.0108 47.784 67.1228 48.2 67.3468 48.456C67.5868 48.712 67.9228 48.84 68.3548 48.84C68.7868 48.84 69.1148 48.712 69.3388 48.456C69.5788 48.2 69.6988 47.784 69.6988 47.208V34.2H72.2428V47.016C72.2428 48.376 71.9068 49.424 71.2348 50.16C70.5628 50.88 69.5868 51.24 68.3068 51.24Z"/>
<path d="M77.9871 36.6H75.2271V34.2H83.3871V36.6H80.6271V51H77.9871V36.6Z"/>
</mask>
<path fill-rule="evenodd" clip-rule="evenodd" d="M7.0218 5.33231L6.3791 5.56661L5.8097 6.29321L5.8968 6.46811L5.2557 7.45621L4.7683 8.37221L4.064 8.85021L4.0977 9.20591L3.8646 9.6202L4.1633 9.92741L4.2122 10.4271L3.6396 10.439L3.6889 11.66L3.0718 12.0981L3.4056 13.1908L3.1351 14.485L2.5449 15.1664L2.5292 15.785L2.1693 16.4656L1.8455 16.7462L1.1528 18.0042L1.0397 18.5824L1.3212 18.9176L1.5851 19.3109L1.5209 19.9019L1.0551 20.511L1 20.8697L1.4749 21.4113L1.656 21.1767L2.4305 20.8544L2.8007 21.1706L2.6938 21.7176L3.0065 22.7832L2.6484 23.2202L2.7303 23.9378L3.1098 23.9045L4.9832 24.5796L5.1884 25.1427L4.8417 25.6126L4.506 25.9158L4.5574 26.1805L4.0834 26.2467L3.6092 26.679L3.6771 27.4831L3.3008 28.6901L3.4278 29.3654L3.2627 29.732L3.8228 30.2899L4.1565 32.1303L4.9102 32.451L4.9096 33.0813L5.4209 33.1561L5.5906 33.3866L6.399 33.1996L6.6247 33.3851L6.8491 34.0852L6.5412 34.7283L6.3784 35.728L6.1903 36.1095L6.1249 36.8132L6.2844 37.0745L6.121 37.5861L6.4805 37.551L6.6227 38.0139L6.5497 38.5401L6.2623 39.0176L6.2553 39.4988L6.25761 41.0584L5.58491 42.9431L6.07531 43.6219L6.03181 44.0053L7.04061 44.6538L7.13841 44.8806L8.29331 45.1788L9.11321 45.6765L9.82151 47.0665L9.83731 47.5436L10.3964 48.0638L10.6904 49.0312L11.2616 49.9329L11.5072 50.9095L12.08 51.4546L12.5973 51.7785L14.356 52.343L15.722 52.9926L15.8694 53.5826L15.3792 53.7744L15.4304 53.991L16.5061 54.6139L16.9184 54.3228L17.4824 54.7136L17.925 54.5631L18.3219 54.6425L19.2896 55.1887L19.4079 55.0517L18.9294 54.5685L18.0949 54.1339L17.5131 53.4908L16.8268 53.0296L16.4319 52.4087L15.7711 51.9899L15.1055 51.3288L14.6918 50.251L13.6559 48.6732L13.2358 48.1973L12.585 46.7239L12.2942 46.4903L11.7318 44.9138L11.1638 43.9369L10.8666 42.1637L10.2861 40.793L9.92411 40.3117L9.55121 39.3126L9.64581 38.1705L9.50871 37.9807L9.82791 37.4876L10.169 37.449L10.1052 36.2583L10.1471 35.5902L9.96939 34.9228L10.0437 34.5588L9.53009 34.3732L9.19719 33.9576L9.37169 33.1911L9.89709 32.4768L9.78469 31.7601L10.1027 31.3603L10.7133 31.2008L10.9279 30.9616L11.6947 31.1408L12.1994 31.0279L13.5759 31.4471L13.9043 31.2758L14.4837 31.4383L14.6187 31.8931L14.9055 31.8379L15.3165 32.1482L16.3469 32.442L18.1261 32.2746L18.4968 32.4944L19.1284 32.327L19.8712 32.5436L20.161 33.175L20.7444 33.4272L21.1892 33.8109L22.2083 33.8476L23.1828 34.203L23.4601 34.163L24.1514 34.4199L24.5639 34.4307L25.857 34.8316L26.4836 34.7278L25.9967 34.2638L24.988 33.8004L24.4073 33.784L23.857 33.5485L23.2365 33.4897L23.0238 33.065L23.3854 32.3056L23.3824 31.3022L23.0637 30.8098L23.2504 30.5433L23.4342 30.1414L23.2461 29.7821L22.8955 29.8803L22.2858 29.6388L21.3909 29.579L20.539 29.0549L19.8517 28.9673L19.0258 28.3628L17.6354 27.9467L16.8871 27.869L16.5956 27.2708L15.866 26.4592L15.7041 26.6125L15.2555 26.2056L14.9078 25.6259L15.0287 25.3163L15.6273 25.1628L15.7967 24.7251L16.363 25.0923L16.8736 25.1705L16.8489 24.9049L16.3476 24.5175L16.3271 24.2829L16.7456 23.8186L17.2731 23.5011L18.1254 23.5183L18.6286 23.1904L19.2222 23.1436L19.5961 22.7917L20.3093 22.4447L20.8267 22.3884L20.9751 22.1237L22.2104 21.1555L23.3245 20.794L23.5319 19.87L23.4584 18.5211L23.9666 17.5204L23.7793 16.9981L24.2849 16.617L24.4407 15.9642L24.3431 15.5347L24.5987 15.0566L24.1861 15.03L23.4779 14.2056L23.3139 13.2273L23.5411 13.1576L23.5598 12.6578L24.1599 12.6977L24.0123 12.0392L23.0424 11.7447L21.9843 12.0642L21.248 12.0742L20.8921 12.4416L20.2628 12.7473L20.0331 12.4378L19.668 12.401L18.6701 12.8305L17.8381 13.3224L17.4265 14.0052L16.6723 14.445L15.7064 14.684L15.2648 15.1398L14.8027 15.2084L14.3587 15.6138L13.546 16.9343L13.0954 17.0271L13.0017 17.691L14.0013 17.5724L14.5927 17.768L14.9195 18.3617L14.8434 19.1146L14.3464 19.8064L13.7002 19.7536L12.0371 19.9552L11.1392 20.4603L11.0719 20.8832L10.6393 21.6436L10.3055 21.893L10.3609 22.3621L10.17 22.5704L10.2676 24.1104L9.60519 24.4986L9.4407 24.9348L8.7575 25.3582L7.9551 25.5148L7.1968 25.3128L6.8755 24.7917L6.4129 24.5475L6.1543 24.0738L5.4974 23.9141L4.9907 22.4271L5.3488 21.8086L5.49839 21.4925L6.4255 21.2398L7.2748 20.7786L7.842 20.1135L8.0213 20.1386L8.4328 19.4221L8.96989 19.289L9.7892 19.3655L9.77259 18.9838L9.9921 18.1708L10.5109 17.7723L10.9881 17.1859L11.0959 16.6421L11.6321 16.5543L11.3628 16.2135L11.2486 15.6342L11.4779 15.1053L11.8845 14.8324L11.6328 14.5844L11.8911 13.8064L12.0777 12.7688L11.9314 11.6881L11.2683 11.3588L11.457 11.1767L11.3152 10.4764L11.8213 10.0405L11.8472 9.7632L11.3215 8.7427L10.7839 8.6339L10.6407 8.2016L10.2286 7.9222L9.5281 8.1428L9.08369 7.9992L8.78979 7.681L8.7183 7.2536L8.9194 6.9321L8.92139 5.8887L9.452 5.4899L10.0722 5.2984L10.6405 4.7487L10.6795 3.9187L11.7061 2.8525L12.5723 1.6566L12.6634 1.2911L12.3965 1.1319L11.7976 1.2116L11.2104 1.488L11.0727 1L10.3737 1.4021L10.2154 1.8237L9.93769 1.8745L9.7131 2.2951L8.6679 3.0191L7.7887 4.1956L7.7452 4.4581L7.0218 5.33231Z" fill="#FDF300"/>
<path d="M3.401 10.0111L3.23 9.47161L2.9839 9.967L3.401 10.0111Z" fill="#FDF300"/>
<path d="M7.03401 44.9979L7.25471 45.8335L6.95761 45.9562L6.88801 45.3746L7.03401 44.9979Z" fill="#FDF300"/>
<path d="M29.024 9.2H32.6L35.336 26H32.696L32.216 22.664V22.712H29.216L28.736 26H26.288L29.024 9.2ZM31.904 20.432L30.728 12.128H30.68L29.528 20.432H31.904Z" fill="#FDF300"/>
<path d="M38.4168 9.2H42.3288C43.6888 9.2 44.6808 9.52 45.3048 10.16C45.9288 10.784 46.2408 11.752 46.2408 13.064V14.096C46.2408 15.84 45.6648 16.944 44.5128 17.408V17.456C45.1528 17.648 45.6008 18.04 45.8568 18.632C46.1288 19.224 46.2648 20.016 46.2648 21.008V23.96C46.2648 24.44 46.2808 24.832 46.3128 25.136C46.3448 25.424 46.4248 25.712 46.5528 26H43.8648C43.7688 25.728 43.7048 25.472 43.6728 25.232C43.6408 24.992 43.6248 24.56 43.6248 23.936V20.864C43.6248 20.096 43.4968 19.56 43.2408 19.256C43.0008 18.952 42.5768 18.8 41.9688 18.8H41.0568V26H38.4168V9.2ZM42.0168 16.4C42.5448 16.4 42.9368 16.264 43.1928 15.992C43.4648 15.72 43.6008 15.264 43.6008 14.624V13.328C43.6008 12.72 43.4888 12.28 43.2648 12.008C43.0568 11.736 42.7208 11.6 42.2568 11.6H41.0568V16.4H42.0168Z" fill="#FDF300"/>
<path d="M49.8965 9.2H52.5365V23.6H56.8805V26H49.8965V9.2Z" fill="#FDF300"/>
<path d="M63.6688 26.24C62.3728 26.24 61.3808 25.872 60.6928 25.136C60.0048 24.4 59.6608 23.36 59.6608 22.016V13.184C59.6608 11.84 60.0048 10.8 60.6928 10.064C61.3808 9.328 62.3728 8.96 63.6688 8.96C64.9648 8.96 65.9568 9.328 66.6448 10.064C67.3328 10.8 67.6768 11.84 67.6768 13.184V22.016C67.6768 23.36 67.3328 24.4 66.6448 25.136C65.9568 25.872 64.9648 26.24 63.6688 26.24ZM63.6688 23.84C64.5808 23.84 65.0368 23.288 65.0368 22.184V13.016C65.0368 11.912 64.5808 11.36 63.6688 11.36C62.7568 11.36 62.3008 11.912 62.3008 13.016V22.184C62.3008 23.288 62.7568 23.84 63.6688 23.84Z" fill="#FDF300"/>
<path d="M73.2324 11.6H70.4724V9.2H78.6324V11.6H75.8724V26H73.2324V11.6Z" fill="#FDF300"/>
<path d="M82.649 9.2H86.225L88.961 26H86.321L85.841 22.664V22.712H82.841L82.361 26H79.913L82.649 9.2ZM85.529 20.432L84.353 12.128H84.305L83.153 20.432H85.529Z" fill="#FDF300"/>
<path d="M26.5 47V35L35.5 29H41V33C41 35.4 37.3333 48 35.5 54V33L30.5 36L26.5 47Z" fill="#FDF300"/>
<path d="M45.024 34.2H48.6L51.336 51H48.696L48.216 47.664V47.712H45.216L44.736 51H42.288L45.024 34.2ZM47.904 45.432L46.728 37.128H46.68L45.528 45.432H47.904Z" fill="#FDF300"/>
<path d="M54.4168 34.2H57.0568V48.6H61.4008V51H54.4168V34.2Z" fill="#FDF300"/>
<path d="M68.3068 51.24C67.0268 51.24 66.0508 50.88 65.3788 50.16C64.7068 49.424 64.3708 48.376 64.3708 47.016V34.2H67.0108V47.208C67.0108 47.784 67.1228 48.2 67.3468 48.456C67.5868 48.712 67.9228 48.84 68.3548 48.84C68.7868 48.84 69.1148 48.712 69.3388 48.456C69.5788 48.2 69.6988 47.784 69.6988 47.208V34.2H72.2428V47.016C72.2428 48.376 71.9068 49.424 71.2348 50.16C70.5628 50.88 69.5868 51.24 68.3068 51.24Z" fill="#FDF300"/>
<path d="M77.9871 36.6H75.2271V34.2H83.3871V36.6H80.6271V51H77.9871V36.6Z" fill="#FDF300"/>
<path d="M4.6619 21.8056L4.41307 21.8298L4.43495 22.0546L4.6608 22.0556L4.6619 21.8056ZM7.4418 5.32581L7.67974 5.24908L7.62295 5.07297L7.43793 5.07584L7.4418 5.32581ZM6.8297 39.2416L6.93187 39.4698L7.03041 39.4256L7.06585 39.3237L6.8297 39.2416ZM6.9106 39.0088L6.85266 38.7656L6.71942 38.7973L6.67445 38.9267L6.9106 39.0088ZM9.68971 36.2663L9.6849 36.0163L9.46427 36.0206L9.44109 36.24L9.68971 36.2663ZM9.63741 36.7615L9.80802 36.9442L9.87622 36.8806L9.88602 36.7878L9.63741 36.7615ZM9.34191 37.0374L9.3219 37.2866L9.43188 37.2954L9.51252 37.2201L9.34191 37.0374ZM8.76531 36.9911L8.78532 36.7419L8.72146 36.7368L8.663 36.763L8.76531 36.9911ZM6.5071 10.1257L6.75585 10.1008L6.7506 10.0485L6.72474 10.0027L6.5071 10.1257ZM6.5774 10.8266L6.32865 10.8516L6.33807 10.9455L6.40721 11.0097L6.5774 10.8266ZM5.5879 15.0899L5.33837 15.1052L5.34245 15.1719L5.37928 15.2277L5.5879 15.0899ZM7.7562 39.2277L7.77862 39.4767L7.85742 39.4696L7.91778 39.4185L7.7562 39.2277ZM5.34989 21.5586L4.66299 21.5556L4.6608 22.0556L5.3477 22.0586L5.34989 21.5586ZM4.31048 20.7758L4.41307 21.8298L4.91072 21.7814L4.80812 20.7274L4.31048 20.7758ZM4.36639 20.1718L4.54325 20.6317L5.00994 20.4523L4.83307 19.9923L4.36639 20.1718ZM4.62725 19.5919L4.72138 20.0071L5.20901 19.8965L5.11488 19.4813L4.62725 19.5919ZM7.20386 5.40253L7.47137 6.23215L7.94725 6.0787L7.67974 5.24908L7.20386 5.40253ZM7.02567 5.58228L7.44567 5.57578L7.43793 5.07584L7.01793 5.08234L7.02567 5.58228ZM5.3407 25.8076L5.03083 25.4491L4.65257 25.7761L4.96244 26.1346L5.3407 25.8076ZM6.72754 39.0134L6.15313 39.2706L6.35747 39.727L6.93187 39.4698L6.72754 39.0134ZM6.67445 38.9267L6.59356 39.1595L7.06585 39.3237L7.14675 39.0909L6.67445 38.9267ZM7.38396 38.639L6.85266 38.7656L6.96855 39.252L7.49985 39.1254L7.38396 38.639ZM9.69452 36.5163L10.11 36.5083L10.1004 36.0083L9.6849 36.0163L9.69452 36.5163ZM9.88602 36.7878L9.93833 36.2926L9.44109 36.24L9.38879 36.7352L9.88602 36.7878ZM9.51252 37.2201L9.80802 36.9442L9.46679 36.5788L9.17129 36.8547L9.51252 37.2201ZM8.7453 37.2403L9.3219 37.2866L9.36192 36.7882L8.78532 36.7419L8.7453 37.2403ZM8.51421 37.3777L8.86762 37.2192L8.663 36.763L8.3096 36.9215L8.51421 37.3777ZM7.32647 7.16975L7.23896 7.01031L6.80064 7.2509L6.88815 7.41033L7.32647 7.16975ZM6.72474 10.0027L6.54234 9.67999L6.10706 9.92602L6.28946 10.2487L6.72474 10.0027ZM6.82615 10.8017L6.75585 10.1008L6.25835 10.1507L6.32865 10.8516L6.82615 10.8017ZM6.95976 10.8407L6.74759 10.6435L6.40721 11.0097L6.61939 11.2069L6.95976 10.8407ZM7.01258 12.5316L6.95096 12.3428L6.47564 12.498L6.53727 12.6868L7.01258 12.5316ZM6.14376 14.1791L5.97488 13.8169L5.52171 14.0281L5.69059 14.3904L6.14376 14.1791ZM5.83743 15.0746L5.80983 14.6236L5.31077 14.6542L5.33837 15.1052L5.83743 15.0746ZM6.04094 15.3223L5.79651 14.9521L5.37928 15.2277L5.62371 15.5978L6.04094 15.3223ZM5.5623 17.4685L5.34101 17.083L4.90739 17.332L5.12868 17.7174L5.5623 17.4685ZM4.75656 17.7207L5.04939 19.0488L5.53766 18.9412L5.24483 17.6131L4.75656 17.7207ZM5.58619 26.0938L5.75056 26.311L6.14924 26.0092L5.98487 25.792L5.58619 26.0938ZM8.16471 36.4692L7.82308 36.4341L7.77203 36.9315L8.11366 36.9666L8.16471 36.4692ZM19.9788 31.1147L20.1196 31.6977L20.6056 31.5803L20.4648 30.9973L19.9788 31.1147ZM16.7753 29.8736L17.5057 30.6374L17.8671 30.2918L17.1367 29.528L16.7753 29.8736ZM15.7958 29.5098L15.9392 29.8763L16.4048 29.6941L16.2614 29.3276L15.7958 29.5098ZM7.73379 38.9787L7.45379 39.0039L7.49862 39.5019L7.77862 39.4767L7.73379 38.9787ZM8.13332 38.5806L7.59462 39.0369L7.91778 39.4185L8.45649 38.9622L8.13332 38.5806ZM13.1006 28.9855L13.3039 29.2277L13.6869 28.9063L13.4836 28.6641L13.1006 28.9855ZM12.3598 28.2937L12.3606 28.6359L12.8606 28.6347L12.8598 28.2925L12.3598 28.2937ZM8.21189 28.2872L8.25168 28.5556L8.74627 28.4823L8.70649 28.2139L8.21189 28.2872ZM5.3488 21.8086L5.78151 22.0591L5.79188 22.0412L5.80074 22.0225L5.3488 21.8086ZM7.0218 5.33231L7.19305 5.80206L7.32052 5.75559L7.40702 5.65107L7.0218 5.33231ZM6.3791 5.56661L6.20785 5.09685L6.07365 5.14577L5.98555 5.2582L6.3791 5.56661ZM5.8097 6.29321L5.41615 5.9848L5.22134 6.23339L5.36213 6.5161L5.8097 6.29321ZM5.8968 6.46811L6.31625 6.74025L6.47164 6.50076L6.34437 6.24521L5.8968 6.46811ZM5.2557 7.45621L4.83625 7.18406L4.82447 7.20222L4.8143 7.22134L5.2557 7.45621ZM4.7683 8.37221L5.04908 8.78592L5.15154 8.71639L5.2097 8.60707L4.7683 8.37221ZM4.064 8.85021L3.78322 8.43649L3.53831 8.6027L3.56623 8.89736L4.064 8.85021ZM4.0977 9.20591L4.53346 9.45108L4.61024 9.31462L4.59547 9.15875L4.0977 9.20591ZM3.8646 9.6202L3.42884 9.37503L3.24556 9.70078L3.50612 9.96876L3.8646 9.6202ZM4.1633 9.92741L4.66092 9.87871L4.64387 9.70441L4.52178 9.57885L4.1633 9.92741ZM4.2122 10.4271L4.22259 10.927L4.76241 10.9158L4.70982 10.3784L4.2122 10.4271ZM3.6396 10.439L3.62921 9.93911L3.11943 9.94971L3.14001 10.4592L3.6396 10.439ZM3.6889 11.66L3.97834 12.0677L4.19943 11.9108L4.18849 11.6398L3.6889 11.66ZM3.0718 12.0981L2.78236 11.6904L2.48823 11.8992L2.59361 12.2442L3.0718 12.0981ZM3.4056 13.1908L3.89503 13.2931L3.92128 13.1675L3.88379 13.0447L3.4056 13.1908ZM3.1351 14.485L3.51304 14.8124L3.59798 14.7143L3.62453 14.5873L3.1351 14.485ZM2.5449 15.1664L2.16696 14.839L2.04961 14.9745L2.04506 15.1537L2.5449 15.1664ZM2.5292 15.785L2.9712 16.0187L3.02606 15.915L3.02904 15.7977L2.5292 15.785ZM2.1693 16.4656L2.49675 16.8435L2.56753 16.7821L2.61131 16.6993L2.1693 16.4656ZM1.8455 16.7462L1.51805 16.3683L1.45058 16.4268L1.40751 16.505L1.8455 16.7462ZM1.1528 18.0042L0.714808 17.763L0.677103 17.8315L0.662097 17.9082L1.1528 18.0042ZM1.0397 18.5824L0.548999 18.4864L0.503124 18.721L0.656809 18.904L1.0397 18.5824ZM1.3212 18.9176L1.7364 18.639L1.7214 18.6167L1.70409 18.5961L1.3212 18.9176ZM1.5851 19.3109L2.08217 19.3649L2.10186 19.1837L2.00029 19.0323L1.5851 19.3109ZM1.5209 19.9019L1.91807 20.2056L2.0029 20.0947L2.01798 19.9559L1.5209 19.9019ZM1.0551 20.511L0.657926 20.2073L0.580298 20.3088L0.560896 20.4351L1.0551 20.511ZM1 20.8697L0.505797 20.7938L0.470415 21.0241L0.624055 21.1993L1 20.8697ZM1.4749 21.4113L1.09895 21.741L1.49947 22.1977L1.87069 21.7168L1.4749 21.4113ZM1.656 21.1767L1.4639 20.7151L1.34133 20.7661L1.26021 20.8712L1.656 21.1767ZM2.4305 20.8544L2.75523 20.4742L2.52181 20.2748L2.2384 20.3928L2.4305 20.8544ZM2.8007 21.1706L3.29142 21.2665L3.34741 20.98L3.12544 20.7904L2.8007 21.1706ZM2.6938 21.7176L2.20308 21.6217L2.17969 21.7414L2.21403 21.8584L2.6938 21.7176ZM3.0065 22.7832L3.39324 23.1001L3.56064 22.8958L3.48627 22.6424L3.0065 22.7832ZM2.6484 23.2202L2.26166 22.9033L2.12765 23.0668L2.15162 23.2769L2.6484 23.2202ZM2.7303 23.9378L2.23353 23.9945L2.28876 24.4785L2.77401 24.4359L2.7303 23.9378ZM3.1098 23.9045L3.27931 23.4341L3.17575 23.3968L3.06609 23.4064L3.1098 23.9045ZM4.9832 24.5796L5.45298 24.4084L5.37286 24.1885L5.15271 24.1092L4.9832 24.5796ZM5.1884 25.1427L5.59074 25.4396L5.75006 25.2236L5.65818 24.9715L5.1884 25.1427ZM4.8417 25.6126L5.17683 25.9837L5.21417 25.9499L5.24404 25.9095L4.8417 25.6126ZM4.506 25.9158L4.17087 25.5447L3.96136 25.734L4.01517 26.0111L4.506 25.9158ZM4.5574 26.1805L4.62656 26.6757L5.14874 26.6028L5.04824 26.0852L4.5574 26.1805ZM4.0834 26.2467L4.01424 25.7515L3.86094 25.7729L3.74655 25.8772L4.0834 26.2467ZM3.6092 26.679L3.27235 26.3095L3.09024 26.4755L3.11098 26.7211L3.6092 26.679ZM3.6771 27.4831L4.15444 27.6319L4.18356 27.5385L4.17533 27.441L3.6771 27.4831ZM3.3008 28.6901L2.82346 28.5413L2.78641 28.6601L2.80942 28.7825L3.3008 28.6901ZM3.4278 29.3654L3.8837 29.5707L3.94823 29.4274L3.91919 29.273L3.4278 29.3654ZM3.2627 29.732L2.8068 29.5267L2.66475 29.8421L2.90985 30.0862L3.2627 29.732ZM3.8228 30.2899L4.31478 30.2007L4.2868 30.0463L4.17566 29.9356L3.8228 30.2899ZM4.1565 32.1303L3.66452 32.2195L3.71263 32.4848L3.96074 32.5904L4.1565 32.1303ZM4.9102 32.451L5.4102 32.4515L5.41052 32.1205L5.10597 31.9909L4.9102 32.451ZM4.9096 33.0813L4.4096 33.0808L4.40919 33.5134L4.83723 33.576L4.9096 33.0813ZM5.4209 33.1561L5.82355 32.8597L5.6998 32.6916L5.49328 32.6614L5.4209 33.1561ZM5.5906 33.3866L5.18796 33.683L5.38292 33.9478L5.70329 33.8737L5.5906 33.3866ZM6.399 33.1996L6.71648 32.8133L6.52624 32.657L6.28632 32.7125L6.399 33.1996ZM6.6247 33.3851L7.10084 33.2325L7.05591 33.0923L6.94218 32.9988L6.6247 33.3851ZM6.8491 34.0852L7.30008 34.3011L7.38591 34.1218L7.32524 33.9326L6.8491 34.0852ZM6.5412 34.7283L6.09023 34.5124L6.05924 34.5771L6.0477 34.6479L6.5412 34.7283ZM6.3784 35.728L6.82686 35.9491L6.85989 35.8821L6.8719 35.8084L6.3784 35.728ZM6.1903 36.1095L5.74185 35.8884L5.701 35.9712L5.69245 36.0632L6.1903 36.1095ZM6.1249 36.8132L5.62705 36.7669L5.6117 36.9321L5.69813 37.0737L6.1249 36.8132ZM6.2844 37.0745L6.7607 37.2266L6.83021 37.009L6.71118 36.814L6.2844 37.0745ZM6.121 37.5861L5.64471 37.434L5.4136 38.1575L6.16959 38.0837L6.121 37.5861ZM6.4805 37.551L6.95846 37.4042L6.8385 37.0137L6.43192 37.0534L6.4805 37.551ZM6.6227 38.0139L7.11796 38.0826L7.13318 37.9729L7.10066 37.8671L6.6227 38.0139ZM6.5497 38.5401L6.97809 38.7979L7.03089 38.7102L7.04496 38.6088L6.5497 38.5401ZM6.2623 39.0176L5.83391 38.7598L5.76432 38.8754L5.76236 39.0103L6.2623 39.0176ZM6.2553 39.4988L5.75529 39.4915L5.7553 39.4995L6.2553 39.4988ZM6.25761 41.0584L6.72851 41.2265L6.75773 41.1446L6.75761 41.0577L6.25761 41.0584ZM5.58491 42.9431L5.114 42.775L5.02559 43.0227L5.17961 43.2359L5.58491 42.9431ZM6.07531 43.6219L6.57212 43.6783L6.59394 43.486L6.4806 43.3291L6.07531 43.6219ZM6.03181 44.0053L5.53499 43.9489L5.49995 44.2578L5.76143 44.4259L6.03181 44.0053ZM7.04061 44.6538L7.49974 44.4558L7.43932 44.3157L7.31098 44.2332L7.04061 44.6538ZM7.13841 44.8806L6.67928 45.0786L6.77626 45.3035L7.01341 45.3647L7.13841 44.8806ZM8.29331 45.1788L8.55276 44.7514L8.48972 44.7131L8.41831 44.6947L8.29331 45.1788ZM9.11321 45.6765L9.5587 45.4495L9.49417 45.3228L9.37266 45.2491L9.11321 45.6765ZM9.82151 47.0665L10.3212 47.05L10.3175 46.9387L10.267 46.8395L9.82151 47.0665ZM9.83731 47.5436L9.33758 47.5602L9.34446 47.768L9.49672 47.9097L9.83731 47.5436ZM10.3964 48.0638L10.8748 47.9184L10.8356 47.7895L10.737 47.6977L10.3964 48.0638ZM10.6904 49.0312L10.212 49.1766L10.2317 49.2415L10.268 49.2988L10.6904 49.0312ZM11.2616 49.9329L11.7465 49.811L11.7269 49.7331L11.684 49.6653L11.2616 49.9329ZM11.5072 50.9095L11.0223 51.0314L11.0576 51.1719L11.1625 51.2717L11.5072 50.9095ZM12.08 51.4546L11.7353 51.8168L11.7719 51.8516L11.8147 51.8784L12.08 51.4546ZM12.5973 51.7785L12.332 52.2023L12.385 52.2355L12.4445 52.2546L12.5973 51.7785ZM14.356 52.343L14.5707 51.8915L14.5406 51.8771L14.5088 51.8669L14.356 52.343ZM15.722 52.9926L16.2071 52.8714L16.1499 52.6424L15.9367 52.5411L15.722 52.9926ZM15.8694 53.5826L16.0516 54.0482L16.4611 53.888L16.3545 53.4614L15.8694 53.5826ZM15.3792 53.7744L15.197 53.3088L14.7927 53.467L14.8926 53.8894L15.3792 53.7744ZM15.4304 53.991L14.9438 54.106L14.9934 54.3157L15.1798 54.4237L15.4304 53.991ZM16.5061 54.6139L16.2555 55.0466L16.5328 55.2071L16.7945 55.0224L16.5061 54.6139ZM16.9184 54.3228L17.2032 53.9118L16.9157 53.7126L16.63 53.9143L16.9184 54.3228ZM17.4824 54.7136L17.1976 55.1246L17.4048 55.2681L17.6434 55.187L17.4824 54.7136ZM17.925 54.5631L18.0231 54.0728L17.8913 54.0465L17.764 54.0897L17.925 54.5631ZM18.3219 54.6425L18.5677 54.2071L18.4982 54.1679L18.42 54.1522L18.3219 54.6425ZM19.2896 55.1887L19.0438 55.6241L19.4004 55.8254L19.668 55.5155L19.2896 55.1887ZM19.4079 55.0517L19.7863 55.3785L20.0886 55.0285L19.7632 54.6999L19.4079 55.0517ZM18.9294 54.5685L19.2847 54.2167L19.2297 54.1611L19.1604 54.125L18.9294 54.5685ZM18.0949 54.1339L17.7241 54.4693L17.7843 54.5359L17.864 54.5774L18.0949 54.1339ZM17.5131 53.4908L17.8839 53.1554L17.8428 53.11L17.792 53.0758L17.5131 53.4908ZM16.8268 53.0296L16.4049 53.2979L16.4611 53.3862L16.5479 53.4446L16.8268 53.0296ZM16.4319 52.4087L16.8538 52.1404L16.7939 52.0462L16.6996 51.9864L16.4319 52.4087ZM15.7711 51.9899L15.4188 52.3447L15.4574 52.3831L15.5034 52.4122L15.7711 51.9899ZM15.1055 51.3288L14.6387 51.508L14.6771 51.608L14.7532 51.6836L15.1055 51.3288ZM14.6918 50.251L15.1586 50.0718L15.1393 50.0216L15.1098 49.9766L14.6918 50.251ZM13.6559 48.6732L14.0739 48.3988L14.0543 48.369L14.0308 48.3423L13.6559 48.6732ZM13.2358 48.1973L12.7784 48.3993L12.8097 48.4701L12.861 48.5282L13.2358 48.1973ZM12.585 46.7239L13.0424 46.5219L12.9931 46.4104L12.8981 46.3341L12.585 46.7239ZM12.2942 46.4903L11.8233 46.6583L11.8708 46.7915L11.9811 46.8801L12.2942 46.4903ZM11.7318 44.9138L12.2027 44.7458L12.1872 44.7024L12.1641 44.6625L11.7318 44.9138ZM11.1638 43.9369L10.6707 44.0196L10.6858 44.1094L10.7316 44.1882L11.1638 43.9369ZM10.8666 42.1637L11.3597 42.081L11.35 42.023L11.327 41.9687L10.8666 42.1637ZM10.2861 40.793L10.7465 40.598L10.7226 40.5415L10.6857 40.4925L10.2861 40.793ZM9.92411 40.3117L9.45567 40.4865L9.48099 40.5544L9.52452 40.6122L9.92411 40.3117ZM9.55121 39.3126L9.05291 39.2713L9.04369 39.3827L9.08277 39.4874L9.55121 39.3126ZM9.64581 38.1705L10.1441 38.2118L10.1594 38.0276L10.0511 37.8777L9.64581 38.1705ZM9.50871 37.9807L9.08898 37.709L8.90308 37.9962L9.10339 38.2735L9.50871 37.9807ZM9.82791 37.4876L9.77168 36.9908L9.53669 37.0174L9.40817 37.2159L9.82791 37.4876ZM10.169 37.449L10.2252 37.9458L10.6935 37.8928L10.6683 37.4222L10.169 37.449ZM10.1052 36.2583L9.60619 36.227L9.60437 36.256L9.60592 36.2851L10.1052 36.2583ZM10.1471 35.5902L10.6461 35.6215L10.6512 35.5402L10.6303 35.4616L10.1471 35.5902ZM9.96939 34.9228L9.47949 34.8228L9.45599 34.9379L9.48622 35.0514L9.96939 34.9228ZM10.0437 34.5588L10.5336 34.6588L10.62 34.2354L10.2136 34.0886L10.0437 34.5588ZM9.53009 34.3732L9.13984 34.6858L9.22782 34.7956L9.36016 34.8434L9.53009 34.3732ZM9.19719 33.9576L8.70966 33.8466L8.6561 34.0819L8.80695 34.2702L9.19719 33.9576ZM9.37169 33.1911L8.96891 32.8948L8.90726 32.9787L8.88416 33.0801L9.37169 33.1911ZM9.89709 32.4768L10.2999 32.7731L10.4233 32.6052L10.391 32.3993L9.89709 32.4768ZM9.78469 31.7601L9.39338 31.4488L9.25671 31.6207L9.29072 31.8376L9.78469 31.7601ZM10.1027 31.3603L9.97632 30.8765L9.8151 30.9186L9.71138 31.049L10.1027 31.3603ZM10.7133 31.2008L10.8397 31.6846L10.9851 31.6466L11.0855 31.5347L10.7133 31.2008ZM10.9279 30.9616L11.0417 30.4747L10.7534 30.4073L10.5557 30.6277L10.9279 30.9616ZM11.6947 31.1408L11.5809 31.6277L11.6923 31.6537L11.8038 31.6287L11.6947 31.1408ZM12.1994 31.0279L12.3451 30.5496L12.2189 30.5112L12.0902 30.54L12.1994 31.0279ZM13.5759 31.4471L13.4302 31.9254L13.6258 31.985L13.8071 31.8904L13.5759 31.4471ZM13.9043 31.2758L14.0393 30.7944L13.8486 30.7409L13.673 30.8325L13.9043 31.2758ZM14.4837 31.4383L14.963 31.296L14.8845 31.0314L14.6187 30.9569L14.4837 31.4383ZM14.6187 31.8931L14.1394 32.0354L14.2683 32.4697L14.7132 32.3841L14.6187 31.8931ZM14.9055 31.8379L15.2068 31.4389L15.0293 31.3049L14.811 31.3469L14.9055 31.8379ZM15.3165 32.1482L15.0152 32.5472L15.0897 32.6035L15.1794 32.629L15.3165 32.1482ZM16.3469 32.442L16.2098 32.9228L16.3002 32.9486L16.3937 32.9398L16.3469 32.442ZM18.1261 32.2746L18.3811 31.8445L18.2412 31.7616L18.0793 31.7768L18.1261 32.2746ZM18.4968 32.4944L18.2418 32.9245L18.4222 33.0314L18.6249 32.9777L18.4968 32.4944ZM19.1284 32.327L19.2684 31.847L19.1348 31.808L19.0003 31.8437L19.1284 32.327ZM19.8712 32.5436L20.3256 32.335L20.2304 32.1275L20.0112 32.0636L19.8712 32.5436ZM20.161 33.175L19.7066 33.3836L19.7866 33.5579L19.9626 33.634L20.161 33.175ZM20.7444 33.4272L21.071 33.0486L21.013 32.9986L20.9428 32.9682L20.7444 33.4272ZM21.1892 33.8109L20.8626 34.1895L20.9956 34.3043L21.1712 34.3106L21.1892 33.8109ZM22.2083 33.8476L22.3796 33.3779L22.3053 33.3508L22.2263 33.3479L22.2083 33.8476ZM23.1828 34.203L23.0115 34.6727L23.1297 34.7158L23.2542 34.6979L23.1828 34.203ZM23.4601 34.163L23.6343 33.6943L23.5148 33.6499L23.3887 33.6681L23.4601 34.163ZM24.1514 34.4199L23.9772 34.8886L24.0552 34.9176L24.1383 34.9197L24.1514 34.4199ZM24.5639 34.4307L24.7119 33.9531L24.646 33.9327L24.577 33.9309L24.5639 34.4307ZM25.857 34.8316L25.7089 35.3092L25.822 35.3442L25.9387 35.3249L25.857 34.8316ZM26.4836 34.7278L26.5653 35.2211L27.5541 35.0573L26.8285 34.3658L26.4836 34.7278ZM25.9967 34.2638L26.3416 33.9018L26.2812 33.8443L26.2054 33.8094L25.9967 34.2638ZM24.988 33.8004L25.1967 33.3461L25.104 33.3035L25.0021 33.3006L24.988 33.8004ZM24.4073 33.784L24.2106 34.2437L24.2981 34.2811L24.3932 34.2838L24.4073 33.784ZM23.857 33.5485L24.0537 33.0888L23.9819 33.0581L23.9042 33.0507L23.857 33.5485ZM23.2365 33.4897L22.7894 33.7136L22.9135 33.9613L23.1893 33.9875L23.2365 33.4897ZM23.0238 33.065L22.5724 32.85L22.4674 33.0705L22.5767 33.2889L23.0238 33.065ZM23.3854 32.3056L23.8368 32.5206L23.8857 32.4179L23.8854 32.3041L23.3854 32.3056ZM23.3824 31.3022L23.8824 31.3007L23.8819 31.1538L23.8021 31.0305L23.3824 31.3022ZM23.0637 30.8098L22.6542 30.5229L22.4609 30.7987L22.6439 31.0815L23.0637 30.8098ZM23.2504 30.5433L23.6599 30.8302L23.6861 30.7928L23.7051 30.7513L23.2504 30.5433ZM23.4342 30.1414L23.8889 30.3494L23.9908 30.1266L23.8772 29.9095L23.4342 30.1414ZM23.2461 29.7821L23.6891 29.5502L23.5012 29.1914L23.1112 29.3006L23.2461 29.7821ZM22.8955 29.8803L22.7114 30.3452L22.8681 30.4072L23.0304 30.3618L22.8955 29.8803ZM22.2858 29.6388L22.4699 29.1739L22.3972 29.1451L22.3191 29.1399L22.2858 29.6388ZM21.3909 29.579L21.1289 30.0049L21.2342 30.0697L21.3576 30.0779L21.3909 29.579ZM20.539 29.0549L20.801 28.629L20.7092 28.5725L20.6022 28.5589L20.539 29.0549ZM19.8517 28.9673L19.5564 29.3708L19.6605 29.447L19.7885 29.4633L19.8517 28.9673ZM19.0258 28.3628L19.3211 27.9593L19.2516 27.9085L19.1691 27.8838L19.0258 28.3628ZM17.6354 27.9467L17.7787 27.4677L17.7338 27.4542L17.687 27.4494L17.6354 27.9467ZM16.8871 27.869L16.4376 28.088L16.5593 28.3377L16.8355 28.3663L16.8871 27.869ZM16.5956 27.2708L17.0451 27.0518L17.0143 26.9887L16.9674 26.9365L16.5956 27.2708ZM15.866 26.4592L16.2378 26.1249L15.8948 25.7433L15.5222 26.0961L15.866 26.4592ZM15.7041 26.6125L15.3682 26.9829L15.7114 27.2942L16.0479 26.9756L15.7041 26.6125ZM15.2555 26.2056L14.8267 26.4628L14.8648 26.5262L14.9196 26.576L15.2555 26.2056ZM14.9078 25.6259L14.442 25.444L14.3528 25.6726L14.479 25.8831L14.9078 25.6259ZM15.0287 25.3163L14.9045 24.832L14.6562 24.8956L14.563 25.1344L15.0287 25.3163ZM15.6273 25.1628L15.7515 25.6471L16.0007 25.5832L16.0936 25.3433L15.6273 25.1628ZM15.7967 24.7251L16.0687 24.3056L15.5525 23.9708L15.3304 24.5446L15.7967 24.7251ZM16.363 25.0923L16.091 25.5118L16.1811 25.5703L16.2873 25.5865L16.363 25.0923ZM16.8736 25.1705L16.7979 25.6647L17.4307 25.7617L17.3714 25.1242L16.8736 25.1705ZM16.8489 24.9049L17.3467 24.8586L17.3266 24.6422L17.1546 24.5093L16.8489 24.9049ZM16.3476 24.5175L15.8495 24.561L15.8686 24.7792L16.0419 24.9131L16.3476 24.5175ZM16.3271 24.2829L15.9557 23.9481L15.8101 24.1097L15.829 24.3264L16.3271 24.2829ZM16.7456 23.8186L16.4878 23.3902L16.424 23.4286L16.3742 23.4838L16.7456 23.8186ZM17.2731 23.5011L17.2832 23.0012L17.1389 22.9983L17.0153 23.0727L17.2731 23.5011ZM18.1254 23.5183L18.1153 24.0182L18.2693 24.0213L18.3984 23.9372L18.1254 23.5183ZM18.6286 23.1904L18.5893 22.692L18.4623 22.702L18.3556 22.7715L18.6286 23.1904ZM19.2222 23.1436L19.2615 23.6421L19.4368 23.6282L19.5649 23.5077L19.2222 23.1436ZM19.5961 22.7917L19.3773 22.3421L19.3089 22.3754L19.2534 22.4276L19.5961 22.7917ZM20.3093 22.4447L20.2552 21.9476L20.1688 21.957L20.0905 21.9951L20.3093 22.4447ZM20.8267 22.3884L20.8808 22.8855L21.1369 22.8576L21.2628 22.6329L20.8267 22.3884ZM20.9751 22.1237L20.6667 21.7302L20.5879 21.7919L20.539 21.8792L20.9751 22.1237ZM22.2104 21.1555L22.0561 20.6799L21.9717 20.7073L21.902 20.762L22.2104 21.1555ZM23.3245 20.794L23.4788 21.2696L23.7499 21.1816L23.8124 20.9035L23.3245 20.794ZM23.5319 19.87L24.0198 19.9795L24.0349 19.9119L24.0312 19.8428L23.5319 19.87ZM23.4584 18.5211L23.0126 18.2947L22.9518 18.4143L22.9591 18.5483L23.4584 18.5211ZM23.9666 17.5204L24.4124 17.7468L24.51 17.5546L24.4372 17.3516L23.9666 17.5204ZM23.7793 16.9981L23.4783 16.5988L23.1844 16.8204L23.3086 17.1669L23.7793 16.9981ZM24.2849 16.617L24.5859 17.0163L24.7295 16.908L24.7712 16.7331L24.2849 16.617ZM24.4407 15.9642L24.927 16.0803L24.9541 15.967L24.9283 15.8534L24.4407 15.9642ZM24.3431 15.5347L23.9022 15.299L23.8142 15.4635L23.8555 15.6455L24.3431 15.5347ZM24.5987 15.0566L25.0396 15.2923L25.4057 14.6076L24.6309 14.5576L24.5987 15.0566ZM24.1861 15.03L23.8068 15.3558L23.9439 15.5154L24.1539 15.529L24.1861 15.03ZM23.4779 14.2056L22.9848 14.2883L23.0078 14.4257L23.0986 14.5314L23.4779 14.2056ZM23.3139 13.2273L23.1673 12.7493L22.7483 12.8778L22.8208 13.31L23.3139 13.2273ZM23.5411 13.1576L23.6877 13.6356L24.0275 13.5314L24.0407 13.1763L23.5411 13.1576ZM23.5598 12.6578L23.593 12.1589L23.0794 12.1248L23.0601 12.6391L23.5598 12.6578ZM24.1599 12.6977L24.1267 13.1966L24.7941 13.241L24.6478 12.5883L24.1599 12.6977ZM24.0123 12.0392L24.5002 11.9298L24.4364 11.6455L24.1576 11.5608L24.0123 12.0392ZM23.0424 11.7447L23.1877 11.2663L23.0428 11.2223L22.8979 11.2661L23.0424 11.7447ZM21.9843 12.0642L21.9911 12.5642L22.0615 12.5632L22.1288 12.5429L21.9843 12.0642ZM21.248 12.0742L21.2412 11.5743L21.0334 11.5771L20.8889 11.7263L21.248 12.0742ZM20.8921 12.4416L21.1106 12.8913L21.1899 12.8528L21.2512 12.7895L20.8921 12.4416ZM20.2628 12.7473L19.8613 13.0453L20.1084 13.3782L20.4813 13.197L20.2628 12.7473ZM20.0331 12.4378L20.4346 12.1398L20.303 11.9625L20.0832 11.9403L20.0331 12.4378ZM19.668 12.401L19.7181 11.9035L19.5893 11.8905L19.4703 11.9417L19.668 12.401ZM18.6701 12.8305L18.4724 12.3712L18.4431 12.3839L18.4156 12.4001L18.6701 12.8305ZM17.8381 13.3224L17.5836 12.892L17.475 12.9562L17.4099 13.0643L17.8381 13.3224ZM17.4265 14.0052L17.6784 14.4371L17.7887 14.3728L17.8547 14.2633L17.4265 14.0052ZM16.6723 14.445L16.7924 14.9304L16.8621 14.9131L16.9242 14.8769L16.6723 14.445ZM15.7064 14.684L15.5863 14.1986L15.4471 14.2331L15.3473 14.3361L15.7064 14.684ZM15.2648 15.1398L15.3382 15.6344L15.5059 15.6095L15.6239 15.4877L15.2648 15.1398ZM14.8027 15.2084L14.7293 14.7138L14.5783 14.7362L14.4656 14.8392L14.8027 15.2084ZM14.3587 15.6138L14.0216 15.2446L13.9697 15.2919L13.9329 15.3517L14.3587 15.6138ZM13.546 16.9343L13.6469 17.424L13.8585 17.3804L13.9718 17.1964L13.546 16.9343ZM13.0954 17.0271L12.9945 16.5374L12.6495 16.6084L12.6003 16.9572L13.0954 17.0271ZM13.0017 17.691L12.5066 17.6211L12.4159 18.264L13.0606 18.1875L13.0017 17.691ZM14.0013 17.5724L14.1583 17.0977L14.0528 17.0628L13.9424 17.0759L14.0013 17.5724ZM14.5927 17.768L15.0307 17.5269L14.9361 17.3549L14.7497 17.2933L14.5927 17.768ZM14.9195 18.3617L15.417 18.412L15.4326 18.257L15.3575 18.1206L14.9195 18.3617ZM14.8434 19.1146L15.2495 19.4063L15.3274 19.2978L15.3409 19.1649L14.8434 19.1146ZM14.3464 19.8064L14.3057 20.3047L14.5875 20.3278L14.7525 20.0981L14.3464 19.8064ZM13.7002 19.7536L13.7409 19.2553L13.6904 19.2511L13.64 19.2572L13.7002 19.7536ZM12.0371 19.9552L11.9769 19.4588L11.8784 19.4708L11.792 19.5194L12.0371 19.9552ZM11.1392 20.4603L10.8941 20.0245L10.6834 20.143L10.6454 20.3817L11.1392 20.4603ZM11.0719 20.8832L11.5065 21.1304L11.5514 21.0515L11.5657 20.9618L11.0719 20.8832ZM10.6393 21.6436L10.9386 22.0442L11.0222 21.9816L11.0739 21.8908L10.6393 21.6436ZM10.3055 21.893L10.0062 21.4925L9.77511 21.6651L9.80895 21.9516L10.3055 21.893ZM10.3609 22.3621L10.7295 22.6999L10.8843 22.531L10.8574 22.3035L10.3609 22.3621ZM10.17 22.5704L9.80138 22.2326L9.65753 22.3895L9.671 22.602L10.17 22.5704ZM10.2676 24.1104L10.5204 24.5418L10.7861 24.3861L10.7666 24.0788L10.2676 24.1104ZM9.60519 24.4986L9.35238 24.0672L9.19977 24.1567L9.13736 24.3222L9.60519 24.4986ZM9.4407 24.9348L9.70408 25.3598L9.84856 25.2703L9.90854 25.1112L9.4407 24.9348ZM8.7575 25.3582L8.85327 25.8489L8.94309 25.8314L9.02088 25.7832L8.7575 25.3582ZM7.9551 25.5148L7.82639 25.998L7.93776 26.0276L8.05087 26.0055L7.9551 25.5148ZM7.1968 25.3128L6.77119 25.5752L6.87569 25.7447L7.06809 25.796L7.1968 25.3128ZM6.8755 24.7917L7.3011 24.5293L7.22952 24.4132L7.10891 24.3495L6.8755 24.7917ZM6.4129 24.5475L5.97403 24.7871L6.04623 24.9193L6.17948 24.9897L6.4129 24.5475ZM6.1543 24.0738L6.59317 23.8342L6.48724 23.6402L6.27241 23.588L6.1543 24.0738ZM5.4974 23.9141L5.02412 24.0754L5.11263 24.3351L5.37928 24.4L5.4974 23.9141ZM4.9907 22.4271L4.55799 22.1766L4.44412 22.3733L4.51742 22.5884L4.9907 22.4271ZM5.49839 21.4925L5.36691 21.0101L5.14489 21.0706L5.04645 21.2786L5.49839 21.4925ZM6.4255 21.2398L6.55698 21.7222L6.61304 21.7069L6.6641 21.6792L6.4255 21.2398ZM7.2748 20.7786L7.5134 21.218L7.59499 21.1737L7.65524 21.103L7.2748 20.7786ZM7.842 20.1135L7.91131 19.6183L7.63959 19.5803L7.46155 19.7891L7.842 20.1135ZM8.0213 20.1386L7.95198 20.6338L8.2866 20.6806L8.45488 20.3876L8.0213 20.1386ZM8.4328 19.4221L8.31253 18.9368L8.10546 18.9881L7.99922 19.1731L8.4328 19.4221ZM8.96989 19.289L9.01638 18.7912L8.93194 18.7833L8.84963 18.8037L8.96989 19.289ZM9.7892 19.3655L9.74271 19.8633L10.3136 19.9166L10.2887 19.3438L9.7892 19.3655ZM9.77259 18.9838L9.28988 18.8535L9.2697 18.9282L9.27307 19.0055L9.77259 18.9838ZM9.9921 18.1708L9.68752 17.7743L9.55345 17.8773L9.50938 18.0405L9.9921 18.1708ZM10.5109 17.7723L10.8155 18.1688L10.8618 18.1332L10.8987 18.0879L10.5109 17.7723ZM10.9881 17.1859L11.3759 17.5015L11.4544 17.4051L11.4785 17.2831L10.9881 17.1859ZM11.0959 16.6421L11.0151 16.1487L10.6729 16.2047L10.6054 16.5449L11.0959 16.6421ZM11.6321 16.5543L11.7129 17.0477L12.5508 16.9105L12.0244 16.2443L11.6321 16.5543ZM11.3628 16.2135L10.8722 16.3102L10.8956 16.4287L10.9705 16.5235L11.3628 16.2135ZM11.2486 15.6342L10.7899 15.4353L10.7279 15.5782L10.758 15.7309L11.2486 15.6342ZM11.4779 15.1053L11.1992 14.6901L11.0775 14.7719L11.0192 14.9064L11.4779 15.1053ZM11.8845 14.8324L12.1631 15.2476L12.6718 14.9062L12.2354 14.4762L11.8845 14.8324ZM11.6328 14.5844L11.1583 14.4269L11.0602 14.7222L11.2819 14.9406L11.6328 14.5844ZM11.8911 13.8064L12.3656 13.9639L12.3769 13.9301L12.3832 13.8949L11.8911 13.8064ZM12.0777 12.7688L12.5698 12.8573L12.5837 12.7798L12.5732 12.7017L12.0777 12.7688ZM11.9314 11.6881L12.4269 11.621L12.3913 11.3582L12.1538 11.2403L11.9314 11.6881ZM11.2683 11.3588L10.9211 10.999L10.411 11.4913L11.0459 11.8066L11.2683 11.3588ZM11.457 11.1767L11.8042 11.5365L12.0015 11.3461L11.9471 11.0775L11.457 11.1767ZM11.3152 10.4764L10.9889 10.0976L10.767 10.2886L10.8251 10.5756L11.3152 10.4764ZM11.8213 10.0405L12.1476 10.4194L12.3004 10.2878L12.3191 10.087L11.8213 10.0405ZM11.8472 9.7632L12.345 9.8097L12.3586 9.66417L12.2917 9.53423L11.8472 9.7632ZM11.3215 8.7427L11.766 8.51373L11.656 8.30027L11.4207 8.25264L11.3215 8.7427ZM10.7839 8.6339L10.3093 8.79113L10.4005 9.06644L10.6847 9.12397L10.7839 8.6339ZM10.6407 8.2016L11.1153 8.04438L11.0619 7.88309L10.9213 7.78775L10.6407 8.2016ZM10.2286 7.9222L10.5092 7.50835L10.309 7.37266L10.0784 7.44529L10.2286 7.9222ZM9.5281 8.1428L9.37436 8.61858L9.52614 8.66762L9.67828 8.61971L9.5281 8.1428ZM9.08369 7.9992L8.71639 8.33845L8.80529 8.43469L8.92996 8.47498L9.08369 7.9992ZM8.78979 7.681L8.29665 7.7635L8.32126 7.91065L8.4225 8.02025L8.78979 7.681ZM8.7183 7.2536L8.29439 6.98845L8.19387 7.14915L8.22515 7.3361L8.7183 7.2536ZM8.9194 6.9321L9.3433 7.19725L9.41912 7.07604L9.41939 6.93306L8.9194 6.9321ZM8.92139 5.8887L8.62099 5.48901L8.42187 5.63866L8.4214 5.88774L8.92139 5.8887ZM9.452 5.4899L9.30448 5.01216L9.22123 5.03786L9.15159 5.09021L9.452 5.4899ZM10.0722 5.2984L10.2197 5.77615L10.3339 5.74088L10.4198 5.65779L10.0722 5.2984ZM10.6405 4.7487L10.9881 5.10809L11.1306 4.97023L11.1399 4.77217L10.6405 4.7487ZM10.6795 3.9187L10.3193 3.5719L10.1889 3.70737L10.18 3.89523L10.6795 3.9187ZM11.7061 2.8525L12.0663 3.1993L12.0905 3.17412L12.111 3.1458L11.7061 2.8525ZM12.5723 1.6566L12.9772 1.9499L13.034 1.87148L13.0574 1.77753L12.5723 1.6566ZM12.6634 1.2911L13.1486 1.41203L13.2383 1.05185L12.9195 0.86169L12.6634 1.2911ZM12.3965 1.1319L12.6526 0.70249L12.5031 0.613305L12.3305 0.636271L12.3965 1.1319ZM11.7976 1.2116L11.7316 0.715971L11.6548 0.726197L11.5847 0.759213L11.7976 1.2116ZM11.2104 1.488L10.7292 1.62378L10.8894 2.1917L11.4233 1.94039L11.2104 1.488ZM11.0727 1L11.5539 0.864217L11.3796 0.246607L10.8234 0.566594L11.0727 1ZM10.3737 1.4021L10.1244 0.968695L9.96872 1.05823L9.9056 1.22635L10.3737 1.4021ZM10.2154 1.8237L10.3054 2.31554L10.5839 2.26458L10.6835 1.99946L10.2154 1.8237ZM9.93769 1.8745L9.84772 1.38266L9.61032 1.42609L9.49664 1.63898L9.93769 1.8745ZM9.7131 2.2951L9.99781 2.70612L10.0972 2.63728L10.1542 2.53062L9.7131 2.2951ZM8.6679 3.0191L8.38319 2.60808L8.31618 2.6545L8.26738 2.71979L8.6679 3.0191ZM7.7887 4.1956L7.38818 3.89629L7.31532 3.99379L7.29542 4.11386L7.7887 4.1956ZM7.7452 4.4581L8.13041 4.77686L8.21642 4.67293L8.23847 4.53984L7.7452 4.4581ZM3.23 9.47161L3.70663 9.32053L3.33274 8.14094L2.78221 9.24916L3.23 9.47161ZM3.401 10.0111L3.34843 10.5083L4.10859 10.5887L3.87763 9.86003L3.401 10.0111ZM2.9839 9.967L2.53611 9.74455L2.21616 10.3886L2.93132 10.4642L2.9839 9.967ZM7.25471 45.8335L7.44557 46.2956L7.84982 46.1287L7.73813 45.7058L7.25471 45.8335ZM7.03401 44.9979L7.51743 44.8702L7.12423 43.3815L6.5678 44.8172L7.03401 44.9979ZM6.95761 45.9562L6.46115 46.0156L6.53944 46.6699L7.14847 46.4183L6.95761 45.9562ZM6.88801 45.3746L6.4218 45.1939L6.37673 45.3102L6.39155 45.434L6.88801 45.3746ZM29.024 9.2V8.7H28.5988L28.5305 9.11963L29.024 9.2ZM32.6 9.2L33.0935 9.11963L33.0252 8.7H32.6V9.2ZM35.336 26V26.5H35.924L35.8295 25.9196L35.336 26ZM32.696 26L32.2011 26.0712L32.2628 26.5H32.696V26ZM32.216 22.664L32.7109 22.5928L31.716 22.664H32.216ZM32.216 22.712V23.212H32.716V22.712H32.216ZM29.216 22.712V22.212H28.7837L28.7212 22.6398L29.216 22.712ZM28.736 26V26.5H29.1683L29.2308 26.0722L28.736 26ZM26.288 26L25.7945 25.9196L25.7 26.5H26.288V26ZM31.904 20.432V20.932H32.4798L32.3991 20.3619L31.904 20.432ZM30.728 12.128L31.2231 12.0579L31.1622 11.628H30.728V12.128ZM30.68 12.128V11.628H30.2446L30.1847 12.0593L30.68 12.128ZM29.528 20.432L29.0327 20.3633L28.9538 20.932H29.528V20.432ZM38.4168 9.2V8.7H37.9168V9.2H38.4168ZM45.3048 10.16L44.9468 10.5091L44.9513 10.5136L45.3048 10.16ZM44.5128 17.408L44.326 16.9442L44.0128 17.0704V17.408H44.5128ZM44.5128 17.456H44.0128V17.828L44.3691 17.9349L44.5128 17.456ZM45.8568 18.632L45.3978 18.8305L45.4025 18.8408L45.8568 18.632ZM46.3128 25.136L45.8156 25.1883L45.8159 25.1912L46.3128 25.136ZM46.5528 26V26.5H47.3222L47.0097 25.7969L46.5528 26ZM43.8648 26L43.3933 26.1664L43.5111 26.5H43.8648V26ZM43.2408 19.256L42.8484 19.5658L42.8533 19.572L42.8584 19.5781L43.2408 19.256ZM41.0568 18.8V18.3H40.5568V18.8H41.0568ZM41.0568 26V26.5H41.5568V26H41.0568ZM38.4168 26H37.9168V26.5H38.4168V26ZM43.1928 15.992L42.8393 15.6384L42.8339 15.6438L42.8287 15.6493L43.1928 15.992ZM43.2648 12.008L42.8676 12.3117L42.8731 12.3189L42.8788 12.3259L43.2648 12.008ZM41.0568 11.6V11.1H40.5568V11.6H41.0568ZM41.0568 16.4H40.5568V16.9H41.0568V16.4ZM49.8965 9.2V8.7H49.3965V9.2H49.8965ZM52.5365 9.2H53.0365V8.7H52.5365V9.2ZM52.5365 23.6H52.0365V24.1H52.5365V23.6ZM56.8805 23.6H57.3805V23.1H56.8805V23.6ZM56.8805 26V26.5H57.3805V26H56.8805ZM49.8965 26H49.3965V26.5H49.8965V26ZM60.6928 25.136L61.058 24.7946L61.058 24.7946L60.6928 25.136ZM60.6928 10.064L61.058 10.4054L61.058 10.4054L60.6928 10.064ZM66.6448 10.064L66.2795 10.4054L66.2795 10.4054L66.6448 10.064ZM66.6448 25.136L66.2795 24.7946L66.2795 24.7946L66.6448 25.136ZM73.2324 11.6H73.7324V11.1H73.2324V11.6ZM70.4724 11.6H69.9724V12.1H70.4724V11.6ZM70.4724 9.2V8.7H69.9724V9.2H70.4724ZM78.6324 9.2H79.1324V8.7H78.6324V9.2ZM78.6324 11.6V12.1H79.1324V11.6H78.6324ZM75.8724 11.6V11.1H75.3724V11.6H75.8724ZM75.8724 26V26.5H76.3724V26H75.8724ZM73.2324 26H72.7324V26.5H73.2324V26ZM82.649 9.2V8.7H82.2238L82.1555 9.11963L82.649 9.2ZM86.225 9.2L86.7185 9.11963L86.6502 8.7H86.225V9.2ZM88.961 26V26.5H89.549L89.4545 25.9196L88.961 26ZM86.321 26L85.8261 26.0712L85.8878 26.5H86.321V26ZM85.841 22.664L86.3359 22.5928L85.341 22.664H85.841ZM85.841 22.712V23.212H86.341V22.712H85.841ZM82.841 22.712V22.212H82.4087L82.3462 22.6398L82.841 22.712ZM82.361 26V26.5H82.7933L82.8558 26.0722L82.361 26ZM79.913 26L79.4195 25.9196L79.325 26.5H79.913V26ZM85.529 20.432V20.932H86.1048L86.0241 20.3619L85.529 20.432ZM84.353 12.128L84.8481 12.0579L84.7872 11.628H84.353V12.128ZM84.305 12.128V11.628H83.8696L83.8097 12.0593L84.305 12.128ZM83.153 20.432L82.6577 20.3633L82.5788 20.932H83.153V20.432ZM26.5 47H26L26.9699 47.1709L26.5 47ZM30.5 36L30.2428 35.5713L30.0907 35.6625L30.0301 35.8291L30.5 36ZM35.5 33H36V32.1169L35.2428 32.5713L35.5 33ZM35.5 54H35L35.9782 54.1461L35.5 54ZM41 29H41.5V28.5H41V29ZM35.5 29V28.5H35.3486L35.2226 28.584L35.5 29ZM26.5 35L26.2226 34.584L26 34.7324V35H26.5ZM45.024 34.2V33.7H44.5988L44.5305 34.1196L45.024 34.2ZM48.6 34.2L49.0935 34.1196L49.0252 33.7H48.6V34.2ZM51.336 51V51.5H51.924L51.8295 50.9196L51.336 51ZM48.696 51L48.2011 51.0712L48.2628 51.5H48.696V51ZM48.216 47.664L48.7109 47.5928L47.716 47.664H48.216ZM48.216 47.712V48.212H48.716V47.712H48.216ZM45.216 47.712V47.212H44.7837L44.7212 47.6398L45.216 47.712ZM44.736 51V51.5H45.1683L45.2308 51.0722L44.736 51ZM42.288 51L41.7945 50.9196L41.7 51.5H42.288V51ZM47.904 45.432V45.932H48.4798L48.3991 45.3619L47.904 45.432ZM46.728 37.128L47.2231 37.0579L47.1622 36.628H46.728V37.128ZM46.68 37.128V36.628H46.2446L46.1847 37.0593L46.68 37.128ZM45.528 45.432L45.0327 45.3633L44.9538 45.932H45.528V45.432ZM54.4168 34.2V33.7H53.9168V34.2H54.4168ZM57.0568 34.2H57.5568V33.7H57.0568V34.2ZM57.0568 48.6H56.5568V49.1H57.0568V48.6ZM61.4008 48.6H61.9008V48.1H61.4008V48.6ZM61.4008 51V51.5H61.9008V51H61.4008ZM54.4168 51H53.9168V51.5H54.4168V51ZM65.3788 50.16L65.0095 50.4972L65.0133 50.5012L65.3788 50.16ZM64.3708 34.2V33.7H63.8708V34.2H64.3708ZM67.0108 34.2H67.5108V33.7H67.0108V34.2ZM67.3468 48.456L66.9705 48.7853L66.9762 48.7917L66.982 48.798L67.3468 48.456ZM69.3388 48.456L68.974 48.114L68.9682 48.1203L68.9625 48.1267L69.3388 48.456ZM69.6988 34.2V33.7H69.1988V34.2H69.6988ZM72.2428 34.2H72.7428V33.7H72.2428V34.2ZM71.2348 50.16L71.6004 50.5012L71.6041 50.4971L71.2348 50.16ZM77.9871 36.6H78.4871V36.1H77.9871V36.6ZM75.2271 36.6H74.7271V37.1H75.2271V36.6ZM75.2271 34.2V33.7H74.7271V34.2H75.2271ZM83.3871 34.2H83.8871V33.7H83.3871V34.2ZM83.3871 36.6V37.1H83.8871V36.6H83.3871ZM80.6271 36.6V36.1H80.1271V36.6H80.6271ZM80.6271 51V51.5H81.1271V51H80.6271ZM77.9871 51H77.4871V51.5H77.9871V51ZM6.55035 6.03636L7.19305 5.80206L6.85055 4.86255L6.20785 5.09685L6.55035 6.03636ZM6.20325 6.60161L6.77265 5.87501L5.98555 5.2582L5.41615 5.9848L6.20325 6.60161ZM6.34437 6.24521L6.25727 6.07031L5.36213 6.5161L5.44923 6.691L6.34437 6.24521ZM5.67515 7.72835L6.31625 6.74025L5.47735 6.19596L4.83625 7.18406L5.67515 7.72835ZM5.2097 8.60707L5.6971 7.69107L4.8143 7.22134L4.3269 8.13734L5.2097 8.60707ZM4.34478 9.26392L5.04908 8.78592L4.48752 7.95849L3.78322 8.43649L4.34478 9.26392ZM4.59547 9.15875L4.56177 8.80305L3.56623 8.89736L3.59993 9.25306L4.59547 9.15875ZM4.30036 9.86538L4.53346 9.45108L3.66193 8.96073L3.42884 9.37503L4.30036 9.86538ZM4.52178 9.57885L4.22308 9.27165L3.50612 9.96876L3.80482 10.276L4.52178 9.57885ZM4.70982 10.3784L4.66092 9.87871L3.66568 9.9761L3.71458 10.4758L4.70982 10.3784ZM3.64999 10.9389L4.22259 10.927L4.20181 9.92721L3.62921 9.93911L3.64999 10.9389ZM4.18849 11.6398L4.13919 10.4188L3.14001 10.4592L3.18931 11.6802L4.18849 11.6398ZM3.36124 12.5058L3.97834 12.0677L3.39946 11.2523L2.78236 11.6904L3.36124 12.5058ZM3.88379 13.0447L3.54999 11.952L2.59361 12.2442L2.92742 13.3369L3.88379 13.0447ZM3.62453 14.5873L3.89503 13.2931L2.91618 13.0885L2.64568 14.3827L3.62453 14.5873ZM2.92284 15.4938L3.51304 14.8124L2.75716 14.1576L2.16696 14.839L2.92284 15.4938ZM3.02904 15.7977L3.04474 15.1791L2.04506 15.1537L2.02936 15.7723L3.02904 15.7977ZM2.61131 16.6993L2.9712 16.0187L2.08719 15.5513L1.72729 16.2319L2.61131 16.6993ZM2.17295 17.1241L2.49675 16.8435L1.84185 16.0877L1.51805 16.3683L2.17295 17.1241ZM1.59079 18.2454L2.28349 16.9874L1.40751 16.505L0.714808 17.763L1.59079 18.2454ZM1.5304 18.6784L1.6435 18.1002L0.662097 17.9082L0.548999 18.4864L1.5304 18.6784ZM1.70409 18.5961L1.42259 18.2609L0.656809 18.904L0.938311 19.2392L1.70409 18.5961ZM2.00029 19.0323L1.7364 18.639L0.906005 19.1962L1.1699 19.5895L2.00029 19.0323ZM2.01798 19.9559L2.08217 19.3649L1.08802 19.2569L1.02382 19.8479L2.01798 19.9559ZM1.45227 20.8147L1.91807 20.2056L1.12373 19.5982L0.657926 20.2073L1.45227 20.8147ZM1.4942 20.9456L1.5493 20.5869L0.560896 20.4351L0.505797 20.7938L1.4942 20.9456ZM1.85084 21.0817L1.37594 20.5401L0.624055 21.1993L1.09895 21.741L1.85084 21.0817ZM1.26021 20.8712L1.07911 21.1058L1.87069 21.7168L2.05179 21.4822L1.26021 20.8712ZM2.2384 20.3928L1.4639 20.7151L1.8481 21.6383L2.6226 21.316L2.2384 20.3928ZM3.12544 20.7904L2.75523 20.4742L2.10577 21.2346L2.47597 21.5508L3.12544 20.7904ZM3.18451 21.8135L3.29142 21.2665L2.30998 21.0747L2.20308 21.6217L3.18451 21.8135ZM3.48627 22.6424L3.17357 21.5768L2.21403 21.8584L2.52673 22.924L3.48627 22.6424ZM3.03514 23.5371L3.39324 23.1001L2.61976 22.4663L2.26166 22.9033L3.03514 23.5371ZM3.22708 23.8811L3.14517 23.1635L2.15162 23.2769L2.23353 23.9945L3.22708 23.8811ZM3.06609 23.4064L2.68659 23.4397L2.77401 24.4359L3.1535 24.4026L3.06609 23.4064ZM5.15271 24.1092L3.27931 23.4341L2.94029 24.3749L4.81369 25.05L5.15271 24.1092ZM5.65818 24.9715L5.45298 24.4084L4.51342 24.7508L4.71862 25.3139L5.65818 24.9715ZM5.24404 25.9095L5.59074 25.4396L4.78606 24.8459L4.43936 25.3158L5.24404 25.9095ZM4.84114 26.2869L5.17683 25.9837L4.50657 25.2415L4.17087 25.5447L4.84114 26.2869ZM5.04824 26.0852L4.99684 25.8205L4.01517 26.0111L4.06657 26.2758L5.04824 26.0852ZM4.15256 26.7419L4.62656 26.6757L4.48824 25.6853L4.01424 25.7515L4.15256 26.7419ZM3.94606 27.0485L4.42026 26.6162L3.74655 25.8772L3.27235 26.3095L3.94606 27.0485ZM4.17533 27.441L4.10743 26.6369L3.11098 26.7211L3.17888 27.5252L4.17533 27.441ZM3.77814 28.8389L4.15444 27.6319L3.19977 27.3343L2.82346 28.5413L3.77814 28.8389ZM3.91919 29.273L3.79219 28.5977L2.80942 28.7825L2.93642 29.4578L3.91919 29.273ZM3.7186 29.9373L3.8837 29.5707L2.9719 29.1601L2.8068 29.5267L3.7186 29.9373ZM4.17566 29.9356L3.61556 29.3777L2.90985 30.0862L3.46995 30.6441L4.17566 29.9356ZM4.64848 32.0411L4.31478 30.2007L3.33083 30.3791L3.66452 32.2195L4.64848 32.0411ZM5.10597 31.9909L4.35227 31.6702L3.96074 32.5904L4.71444 32.9111L5.10597 31.9909ZM5.4096 33.0818L5.4102 32.4515L4.4102 32.4505L4.4096 33.0808L5.4096 33.0818ZM5.49328 32.6614L4.98198 32.5866L4.83723 33.576L5.34853 33.6508L5.49328 32.6614ZM5.99325 33.0902L5.82355 32.8597L5.01826 33.4525L5.18796 33.683L5.99325 33.0902ZM6.28632 32.7125L5.47792 32.8995L5.70329 33.8737L6.51169 33.6867L6.28632 32.7125ZM6.94218 32.9988L6.71648 32.8133L6.08153 33.5859L6.30723 33.7714L6.94218 32.9988ZM7.32524 33.9326L7.10084 33.2325L6.14856 33.5377L6.37296 34.2378L7.32524 33.9326ZM6.99218 34.9442L7.30008 34.3011L6.39812 33.8693L6.09023 34.5124L6.99218 34.9442ZM6.8719 35.8084L7.0347 34.8087L6.0477 34.6479L5.8849 35.6476L6.8719 35.8084ZM6.63876 36.3306L6.82686 35.9491L5.92995 35.5069L5.74185 35.8884L6.63876 36.3306ZM6.62276 36.8595L6.68816 36.1558L5.69245 36.0632L5.62705 36.7669L6.62276 36.8595ZM6.71118 36.814L6.55168 36.5527L5.69813 37.0737L5.85763 37.335L6.71118 36.814ZM6.5973 37.7382L6.7607 37.2266L5.80811 36.9224L5.64471 37.434L6.5973 37.7382ZM6.43192 37.0534L6.07242 37.0885L6.16959 38.0837L6.52909 38.0486L6.43192 37.0534ZM7.10066 37.8671L6.95846 37.4042L6.00255 37.6978L6.14475 38.1607L7.10066 37.8671ZM7.04496 38.6088L7.11796 38.0826L6.12745 37.9452L6.05445 38.4714L7.04496 38.6088ZM6.69069 39.2754L6.97809 38.7979L6.12131 38.2823L5.83391 38.7598L6.69069 39.2754ZM6.75525 39.5061L6.76225 39.0249L5.76236 39.0103L5.75536 39.4915L6.75525 39.5061ZM6.75761 41.0577L6.7553 39.4981L5.7553 39.4995L5.75761 41.0591L6.75761 41.0577ZM6.05581 43.1112L6.72851 41.2265L5.7867 40.8903L5.114 42.775L6.05581 43.1112ZM6.4806 43.3291L5.9902 42.6503L5.17961 43.2359L5.67001 43.9147L6.4806 43.3291ZM6.52862 44.0617L6.57212 43.6783L5.57849 43.5655L5.53499 43.9489L6.52862 44.0617ZM7.31098 44.2332L6.30218 43.5847L5.76143 44.4259L6.77023 45.0744L7.31098 44.2332ZM7.59754 44.6826L7.49974 44.4558L6.58148 44.8518L6.67928 45.0786L7.59754 44.6826ZM8.41831 44.6947L7.26341 44.3965L7.01341 45.3647L8.1683 45.6629L8.41831 44.6947ZM9.37266 45.2491L8.55276 44.7514L8.03386 45.6062L8.85376 46.1039L9.37266 45.2491ZM10.267 46.8395L9.5587 45.4495L8.66771 45.9035L9.37601 47.2935L10.267 46.8395ZM10.337 47.5271L10.3212 47.05L9.32178 47.0831L9.33758 47.5602L10.337 47.5271ZM10.737 47.6977L10.1779 47.1775L9.49672 47.9097L10.0558 48.4299L10.737 47.6977ZM11.1688 48.8858L10.8748 47.9184L9.91801 48.2092L10.212 49.1766L11.1688 48.8858ZM11.684 49.6653L11.1128 48.7636L10.268 49.2988L10.8392 50.2005L11.684 49.6653ZM11.9921 50.7876L11.7465 49.811L10.7767 50.0548L11.0223 51.0314L11.9921 50.7876ZM12.4247 51.0924L11.8519 50.5473L11.1625 51.2717L11.7353 51.8168L12.4247 51.0924ZM12.8627 51.3547L12.3454 51.0308L11.8147 51.8784L12.332 52.2023L12.8627 51.3547ZM14.5088 51.8669L12.7501 51.3024L12.4445 52.2546L14.2032 52.8191L14.5088 51.8669ZM15.9367 52.5411L14.5707 51.8915L14.1413 52.7945L15.5073 53.4441L15.9367 52.5411ZM16.3545 53.4614L16.2071 52.8714L15.2369 53.1138L15.3843 53.7038L16.3545 53.4614ZM15.5614 54.24L16.0516 54.0482L15.6872 53.117L15.197 53.3088L15.5614 54.24ZM15.917 53.876L15.8658 53.6594L14.8926 53.8894L14.9438 54.106L15.917 53.876ZM16.7567 54.1812L15.681 53.5583L15.1798 54.4237L16.2555 55.0466L16.7567 54.1812ZM16.63 53.9143L16.2177 54.2054L16.7945 55.0224L17.2068 54.7313L16.63 53.9143ZM17.7672 54.3026L17.2032 53.9118L16.6336 54.7338L17.1976 55.1246L17.7672 54.3026ZM17.764 54.0897L17.3214 54.2402L17.6434 55.187L18.086 55.0365L17.764 54.0897ZM18.42 54.1522L18.0231 54.0728L17.8269 55.0534L18.2238 55.1328L18.42 54.1522ZM19.5354 54.7533L18.5677 54.2071L18.0761 55.0779L19.0438 55.6241L19.5354 54.7533ZM19.0295 54.7249L18.9112 54.8619L19.668 55.5155L19.7863 55.3785L19.0295 54.7249ZM18.5741 54.9203L19.0526 55.4035L19.7632 54.6999L19.2847 54.2167L18.5741 54.9203ZM17.864 54.5774L18.6985 55.012L19.1604 54.125L18.3259 53.6904L17.864 54.5774ZM17.1423 53.8262L17.7241 54.4693L18.4657 53.7985L17.8839 53.1554L17.1423 53.8262ZM16.5479 53.4446L17.2342 53.9058L17.792 53.0758L17.1057 52.6146L16.5479 53.4446ZM16.01 52.677L16.4049 53.2979L17.2487 52.7613L16.8538 52.1404L16.01 52.677ZM15.5034 52.4122L16.1642 52.831L16.6996 51.9864L16.0388 51.5676L15.5034 52.4122ZM14.7532 51.6836L15.4188 52.3447L16.1235 51.6352L15.4579 50.974L14.7532 51.6836ZM14.225 50.4302L14.6387 51.508L15.5723 51.1496L15.1586 50.0718L14.225 50.4302ZM13.2379 48.9476L14.2738 50.5254L15.1098 49.9766L14.0739 48.3988L13.2379 48.9476ZM12.861 48.5282L13.2811 49.0041L14.0308 48.3423L13.6107 47.8664L12.861 48.5282ZM12.1276 46.9259L12.7784 48.3993L13.6932 47.9953L13.0424 46.5219L12.1276 46.9259ZM11.9811 46.8801L12.2719 47.1137L12.8981 46.3341L12.6073 46.1005L11.9811 46.8801ZM11.2609 45.0818L11.8233 46.6583L12.7651 46.3223L12.2027 44.7458L11.2609 45.0818ZM10.7316 44.1882L11.2996 45.1651L12.1641 44.6625L11.5961 43.6856L10.7316 44.1882ZM10.3735 42.2464L10.6707 44.0196L11.6569 43.8543L11.3597 42.081L10.3735 42.2464ZM9.82569 40.988L10.4062 42.3587L11.327 41.9687L10.7465 40.598L9.82569 40.988ZM9.52452 40.6122L9.88651 41.0935L10.6857 40.4925L10.3237 40.0112L9.52452 40.6122ZM9.08277 39.4874L9.45567 40.4865L10.3925 40.1369L10.0196 39.1378L9.08277 39.4874ZM9.14751 38.1292L9.05291 39.2713L10.0495 39.3539L10.1441 38.2118L9.14751 38.1292ZM9.10339 38.2735L9.24048 38.4633L10.0511 37.8777L9.91403 37.6879L9.10339 38.2735ZM9.40817 37.2159L9.08898 37.709L9.92844 38.2524L10.2476 37.7593L9.40817 37.2159ZM10.1128 36.9522L9.77168 36.9908L9.88413 37.9844L10.2252 37.9458L10.1128 36.9522ZM9.60592 36.2851L9.66972 37.4758L10.6683 37.4222L10.6045 36.2315L9.60592 36.2851ZM9.64807 35.5589L9.60619 36.227L10.6042 36.2896L10.6461 35.6215L9.64807 35.5589ZM9.48622 35.0514L9.66392 35.7188L10.6303 35.4616L10.4526 34.7942L9.48622 35.0514ZM9.55379 34.4588L9.47949 34.8228L10.4593 35.0228L10.5336 34.6588L9.55379 34.4588ZM9.36016 34.8434L9.87376 35.029L10.2136 34.0886L9.70002 33.903L9.36016 34.8434ZM8.80695 34.2702L9.13984 34.6858L9.92033 34.0606L9.58743 33.645L8.80695 34.2702ZM8.88416 33.0801L8.70966 33.8466L9.68472 34.0686L9.85921 33.3021L8.88416 33.0801ZM9.49431 32.1805L8.96891 32.8948L9.77447 33.4874L10.2999 32.7731L9.49431 32.1805ZM9.29072 31.8376L9.40312 32.5543L10.391 32.3993L10.2786 31.6826L9.29072 31.8376ZM9.71138 31.049L9.39338 31.4488L10.176 32.0713L10.494 31.6715L9.71138 31.049ZM10.5869 30.717L9.97632 30.8765L10.2291 31.8441L10.8397 31.6846L10.5869 30.717ZM10.5557 30.6277L10.3411 30.8669L11.0855 31.5347L11.3001 31.2955L10.5557 30.6277ZM11.8085 30.6539L11.0417 30.4747L10.8141 31.4485L11.5809 31.6277L11.8085 30.6539ZM12.0902 30.54L11.5855 30.6529L11.8038 31.6287L12.3085 31.5158L12.0902 30.54ZM13.7216 30.9688L12.3451 30.5496L12.0537 31.5062L13.4302 31.9254L13.7216 30.9688ZM13.673 30.8325L13.3446 31.0038L13.8071 31.8904L14.1355 31.7191L13.673 30.8325ZM14.6187 30.9569L14.0393 30.7944L13.7693 31.7572L14.3487 31.9197L14.6187 30.9569ZM15.098 31.7508L14.963 31.296L14.0044 31.5806L14.1394 32.0354L15.098 31.7508ZM14.811 31.3469L14.5242 31.4021L14.7132 32.3841L15 32.3289L14.811 31.3469ZM15.6178 31.7492L15.2068 31.4389L14.6042 32.2369L15.0152 32.5472L15.6178 31.7492ZM16.484 31.9612L15.4536 31.6674L15.1794 32.629L16.2098 32.9228L16.484 31.9612ZM18.0793 31.7768L16.3001 31.9442L16.3937 32.9398L18.1729 32.7724L18.0793 31.7768ZM18.7518 32.0643L18.3811 31.8445L17.8711 32.7047L18.2418 32.9245L18.7518 32.0643ZM19.0003 31.8437L18.3687 32.0111L18.6249 32.9777L19.2565 32.8103L19.0003 31.8437ZM20.0112 32.0636L19.2684 31.847L18.9884 32.807L19.7312 33.0236L20.0112 32.0636ZM20.6154 32.9664L20.3256 32.335L19.4168 32.7522L19.7066 33.3836L20.6154 32.9664ZM20.9428 32.9682L20.3594 32.716L19.9626 33.634L20.546 33.8861L20.9428 32.9682ZM21.5158 33.4323L21.071 33.0486L20.4178 33.8058L20.8626 34.1895L21.5158 33.4323ZM22.2263 33.3479L21.2072 33.3112L21.1712 34.3106L22.1903 34.3473L22.2263 33.3479ZM23.3541 33.7333L22.3796 33.3779L22.037 34.3173L23.0115 34.6727L23.3541 33.7333ZM23.3887 33.6681L23.1114 33.7081L23.2542 34.6979L23.5315 34.6579L23.3887 33.6681ZM24.3256 33.9512L23.6343 33.6943L23.2859 34.6317L23.9772 34.8886L24.3256 33.9512ZM24.577 33.9309L24.1645 33.9201L24.1383 34.9197L24.5508 34.9305L24.577 33.9309ZM26.0051 34.354L24.7119 33.9531L24.4158 34.9083L25.7089 35.3092L26.0051 34.354ZM26.4019 34.2345L25.7753 34.3383L25.9387 35.3249L26.5653 35.2211L26.4019 34.2345ZM25.6517 34.6258L26.1386 35.0898L26.8285 34.3658L26.3416 33.9018L25.6517 34.6258ZM24.7793 34.2547L25.788 34.7181L26.2054 33.8094L25.1967 33.3461L24.7793 34.2547ZM24.3932 34.2838L24.9739 34.3002L25.0021 33.3006L24.4214 33.2842L24.3932 34.2838ZM23.6603 34.0082L24.2106 34.2437L24.604 33.3243L24.0537 33.0888L23.6603 34.0082ZM23.1893 33.9875L23.8098 34.0463L23.9042 33.0507L23.2837 32.9919L23.1893 33.9875ZM22.5767 33.2889L22.7894 33.7136L23.6836 33.2658L23.4709 32.8411L22.5767 33.2889ZM22.934 32.0906L22.5724 32.85L23.4752 33.28L23.8368 32.5206L22.934 32.0906ZM22.8824 31.3037L22.8854 32.3071L23.8854 32.3041L23.8824 31.3007L22.8824 31.3037ZM22.6439 31.0815L22.9626 31.5739L23.8021 31.0305L23.4834 30.5381L22.6439 31.0815ZM22.8409 30.2564L22.6542 30.5229L23.4732 31.0967L23.6599 30.8302L22.8409 30.2564ZM22.9795 29.9334L22.7957 30.3353L23.7051 30.7513L23.8889 30.3494L22.9795 29.9334ZM22.8031 30.014L22.9912 30.3733L23.8772 29.9095L23.6891 29.5502L22.8031 30.014ZM23.0304 30.3618L23.381 30.2636L23.1112 29.3006L22.7606 29.3988L23.0304 30.3618ZM22.1017 30.1037L22.7114 30.3452L23.0796 29.4154L22.4699 29.1739L22.1017 30.1037ZM21.3576 30.0779L22.2525 30.1377L22.3191 29.1399L21.4242 29.0801L21.3576 30.0779ZM20.277 29.4808L21.1289 30.0049L21.6529 29.1531L20.801 28.629L20.277 29.4808ZM19.7885 29.4633L20.4758 29.5509L20.6022 28.5589L19.9149 28.4713L19.7885 29.4633ZM18.7305 28.7663L19.5564 29.3708L20.147 28.5638L19.3211 27.9593L18.7305 28.7663ZM17.492 28.4257L18.8824 28.8418L19.1691 27.8838L17.7787 27.4677L17.492 28.4257ZM16.8355 28.3663L17.5838 28.444L17.687 27.4494L16.9387 27.3717L16.8355 28.3663ZM16.1461 27.4898L16.4376 28.088L17.3366 27.65L17.0451 27.0518L16.1461 27.4898ZM15.4942 26.7935L16.2238 27.6051L16.9674 26.9365L16.2378 26.1249L15.4942 26.7935ZM16.0479 26.9756L16.2098 26.8223L15.5222 26.0961L15.3603 26.2494L16.0479 26.9756ZM14.9196 26.576L15.3682 26.9829L16.04 26.2422L15.5914 25.8353L14.9196 26.576ZM14.479 25.8831L14.8267 26.4628L15.6843 25.9484L15.3366 25.3687L14.479 25.8831ZM14.563 25.1344L14.442 25.444L15.3735 25.8078L15.4944 25.4982L14.563 25.1344ZM15.5031 24.6785L14.9045 24.832L15.1529 25.8006L15.7515 25.6471L15.5031 24.6785ZM15.3304 24.5446L15.161 24.9823L16.0936 25.3433L16.263 24.9056L15.3304 24.5446ZM16.635 24.6728L16.0687 24.3056L15.5247 25.1446L16.091 25.5118L16.635 24.6728ZM16.9493 24.6763L16.4387 24.5981L16.2873 25.5865L16.7979 25.6647L16.9493 24.6763ZM16.351 24.9512L16.3757 25.2168L17.3714 25.1242L17.3467 24.8586L16.351 24.9512ZM16.0419 24.9131L16.5432 25.3005L17.1546 24.5093L16.6533 24.1219L16.0419 24.9131ZM15.829 24.3264L15.8495 24.561L16.8457 24.474L16.8252 24.2394L15.829 24.3264ZM16.3742 23.4838L15.9557 23.9481L16.6985 24.6177L17.117 24.1534L16.3742 23.4838ZM17.0153 23.0727L16.4878 23.3902L17.0034 24.247L17.5309 23.9295L17.0153 23.0727ZM18.1355 23.0184L17.2832 23.0012L17.263 24.001L18.1153 24.0182L18.1355 23.0184ZM18.3556 22.7715L17.8524 23.0994L18.3984 23.9372L18.9016 23.6093L18.3556 22.7715ZM19.1829 22.6452L18.5893 22.692L18.6679 23.6889L19.2615 23.6421L19.1829 22.6452ZM19.2534 22.4276L18.8795 22.7795L19.5649 23.5077L19.9388 23.1558L19.2534 22.4276ZM20.0905 21.9951L19.3773 22.3421L19.8148 23.2413L20.5281 22.8943L20.0905 21.9951ZM20.7726 21.8913L20.2552 21.9476L20.3634 22.9418L20.8808 22.8855L20.7726 21.8913ZM20.539 21.8792L20.3906 22.1439L21.2628 22.6329L21.4112 22.3682L20.539 21.8792ZM21.902 20.762L20.6667 21.7302L21.2835 22.5172L22.5188 21.549L21.902 20.762ZM23.1702 20.3184L22.0561 20.6799L22.3647 21.6311L23.4788 21.2696L23.1702 20.3184ZM23.044 19.7605L22.8366 20.6845L23.8124 20.9035L24.0198 19.9795L23.044 19.7605ZM22.9591 18.5483L23.0326 19.8972L24.0312 19.8428L23.9577 18.4939L22.9591 18.5483ZM23.5208 17.294L23.0126 18.2947L23.9042 18.7475L24.4124 17.7468L23.5208 17.294ZM23.3086 17.1669L23.4959 17.6892L24.4372 17.3516L24.2499 16.8293L23.3086 17.1669ZM23.9839 16.2177L23.4783 16.5988L24.0803 17.3974L24.5859 17.0163L23.9839 16.2177ZM23.9544 15.8481L23.7986 16.5009L24.7712 16.7331L24.927 16.0803L23.9544 15.8481ZM23.8555 15.6455L23.9531 16.075L24.9283 15.8534L24.8307 15.4239L23.8555 15.6455ZM24.1578 14.8209L23.9022 15.299L24.784 15.7704L25.0396 15.2923L24.1578 14.8209ZM24.1539 15.529L24.5665 15.5556L24.6309 14.5576L24.2183 14.531L24.1539 15.529ZM23.0986 14.5314L23.8068 15.3558L24.5654 14.7042L23.8572 13.8798L23.0986 14.5314ZM22.8208 13.31L22.9848 14.2883L23.971 14.1229L23.807 13.1446L22.8208 13.31ZM23.3945 12.6796L23.1673 12.7493L23.4605 13.7053L23.6877 13.6356L23.3945 12.6796ZM23.0601 12.6391L23.0414 13.1389L24.0407 13.1763L24.0594 12.6765L23.0601 12.6391ZM24.1931 12.1988L23.593 12.1589L23.5266 13.1567L24.1267 13.1966L24.1931 12.1988ZM23.5244 12.1486L23.672 12.8071L24.6478 12.5883L24.5002 11.9298L23.5244 12.1486ZM22.8971 12.2231L23.867 12.5176L24.1576 11.5608L23.1877 11.2663L22.8971 12.2231ZM22.1288 12.5429L23.1869 12.2234L22.8979 11.2661L21.8398 11.5856L22.1288 12.5429ZM21.2548 12.5742L21.9911 12.5642L21.9775 11.5643L21.2412 11.5743L21.2548 12.5742ZM21.2512 12.7895L21.6071 12.4221L20.8889 11.7263L20.533 12.0937L21.2512 12.7895ZM20.4813 13.197L21.1106 12.8913L20.6736 11.9919L20.0443 12.2976L20.4813 13.197ZM19.6316 12.7358L19.8613 13.0453L20.6643 12.4493L20.4346 12.1398L19.6316 12.7358ZM19.6179 12.8985L19.9829 12.9353L20.0832 11.9403L19.7181 11.9035L19.6179 12.8985ZM18.8678 13.2898L19.8657 12.8603L19.4703 11.9417L18.4724 12.3712L18.8678 13.2898ZM18.0926 13.7528L18.9246 13.2609L18.4156 12.4001L17.5836 12.892L18.0926 13.7528ZM17.8547 14.2633L18.2663 13.5805L17.4099 13.0643L16.9983 13.7471L17.8547 14.2633ZM16.9242 14.8769L17.6784 14.4371L17.1746 13.5733L16.4204 14.0131L16.9242 14.8769ZM15.8265 15.1694L16.7924 14.9304L16.5522 13.9596L15.5863 14.1986L15.8265 15.1694ZM15.6239 15.4877L16.0655 15.0319L15.3473 14.3361L14.9057 14.7919L15.6239 15.4877ZM14.8761 15.703L15.3382 15.6344L15.1914 14.6452L14.7293 14.7138L14.8761 15.703ZM14.6958 15.983L15.1398 15.5776L14.4656 14.8392L14.0216 15.2446L14.6958 15.983ZM13.9718 17.1964L14.7845 15.8759L13.9329 15.3517L13.1202 16.6722L13.9718 17.1964ZM13.1963 17.5168L13.6469 17.424L13.4451 16.4446L12.9945 16.5374L13.1963 17.5168ZM13.4968 17.7609L13.5905 17.097L12.6003 16.9572L12.5066 17.6211L13.4968 17.7609ZM13.9424 17.0759L12.9428 17.1945L13.0606 18.1875L14.0602 18.0689L13.9424 17.0759ZM14.7497 17.2933L14.1583 17.0977L13.8443 18.0471L14.4357 18.2427L14.7497 17.2933ZM15.3575 18.1206L15.0307 17.5269L14.1547 18.0091L14.4815 18.6028L15.3575 18.1206ZM15.3409 19.1649L15.417 18.412L14.422 18.3114L14.3459 19.0643L15.3409 19.1649ZM14.7525 20.0981L15.2495 19.4063L14.4373 18.8229L13.9403 19.5147L14.7525 20.0981ZM13.6595 20.2519L14.3057 20.3047L14.3871 19.3081L13.7409 19.2553L13.6595 20.2519ZM12.0973 20.4516L13.7604 20.25L13.64 19.2572L11.9769 19.4588L12.0973 20.4516ZM11.3843 20.8961L12.2822 20.391L11.792 19.5194L10.8941 20.0245L11.3843 20.8961ZM11.5657 20.9618L11.633 20.5389L10.6454 20.3817L10.5781 20.8046L11.5657 20.9618ZM11.0739 21.8908L11.5065 21.1304L10.6373 20.636L10.2047 21.3964L11.0739 21.8908ZM10.6048 22.2936L10.9386 22.0442L10.34 21.2431L10.0062 21.4925L10.6048 22.2936ZM10.8574 22.3035L10.802 21.8344L9.80895 21.9516L9.86435 22.4207L10.8574 22.3035ZM10.5386 22.9082L10.7295 22.6999L9.99229 22.0243L9.80138 22.2326L10.5386 22.9082ZM10.7666 24.0788L10.669 22.5388L9.671 22.602L9.7686 24.142L10.7666 24.0788ZM9.858 24.93L10.5204 24.5418L10.0148 23.679L9.35238 24.0672L9.858 24.93ZM9.90854 25.1112L10.073 24.675L9.13736 24.3222L8.97286 24.7584L9.90854 25.1112ZM9.02088 25.7832L9.70408 25.3598L9.17731 24.5098L8.49411 24.9332L9.02088 25.7832ZM8.05087 26.0055L8.85327 25.8489L8.66172 24.8675L7.85932 25.0241L8.05087 26.0055ZM7.06809 25.796L7.82639 25.998L8.0838 25.0317L7.3255 24.8297L7.06809 25.796ZM6.44989 25.0541L6.77119 25.5752L7.6224 25.0504L7.3011 24.5293L6.44989 25.0541ZM6.17948 24.9897L6.64208 25.2339L7.10891 24.3495L6.64631 24.1053L6.17948 24.9897ZM5.71544 24.3134L5.97403 24.7871L6.85176 24.3079L6.59317 23.8342L5.71544 24.3134ZM5.37928 24.4L6.03619 24.5597L6.27241 23.588L5.61551 23.4283L5.37928 24.4ZM4.51742 22.5884L5.02412 24.0754L5.97068 23.7528L5.46398 22.2658L4.51742 22.5884ZM4.91609 21.5581L4.55799 22.1766L5.42341 22.6776L5.78151 22.0591L4.91609 21.5581ZM5.04645 21.2786L4.89685 21.5947L5.80074 22.0225L5.95034 21.7064L5.04645 21.2786ZM6.29401 20.7574L5.36691 21.0101L5.62988 21.9749L6.55698 21.7222L6.29401 20.7574ZM7.03619 20.3392L6.18689 20.8004L6.6641 21.6792L7.5134 21.218L7.03619 20.3392ZM7.46155 19.7891L6.89435 20.4542L7.65524 21.103L8.22244 20.4379L7.46155 19.7891ZM8.09061 19.6434L7.91131 19.6183L7.77268 20.6087L7.95198 20.6338L8.09061 19.6434ZM7.99922 19.1731L7.58772 19.8896L8.45488 20.3876L8.86638 19.6711L7.99922 19.1731ZM8.84963 18.8037L8.31253 18.9368L8.55307 19.9074L9.09016 19.7743L8.84963 18.8037ZM9.83568 18.8677L9.01638 18.7912L8.92341 19.7868L9.74271 19.8633L9.83568 18.8677ZM9.27307 19.0055L9.28967 19.3872L10.2887 19.3438L10.2721 18.9621L9.27307 19.0055ZM9.50938 18.0405L9.28988 18.8535L10.2553 19.1141L10.4748 18.3011L9.50938 18.0405ZM10.2063 17.3758L9.68752 17.7743L10.2967 18.5673L10.8155 18.1688L10.2063 17.3758ZM10.6003 16.8703L10.1231 17.4567L10.8987 18.0879L11.3759 17.5015L10.6003 16.8703ZM10.6054 16.5449L10.4976 17.0887L11.4785 17.2831L11.5864 16.7393L10.6054 16.5449ZM11.5513 16.0609L11.0151 16.1487L11.1767 17.1355L11.7129 17.0477L11.5513 16.0609ZM10.9705 16.5235L11.2398 16.8643L12.0244 16.2443L11.7551 15.9035L10.9705 16.5235ZM10.758 15.7309L10.8722 16.3102L11.8534 16.1168L11.7392 15.5375L10.758 15.7309ZM11.0192 14.9064L10.7899 15.4353L11.7073 15.8331L11.9366 15.3042L11.0192 14.9064ZM11.6059 14.4172L11.1992 14.6901L11.7565 15.5205L12.1631 15.2476L11.6059 14.4172ZM11.2819 14.9406L11.5336 15.1886L12.2354 14.4762L11.9837 14.2282L11.2819 14.9406ZM11.4166 13.6489L11.1583 14.4269L12.1073 14.7419L12.3656 13.9639L11.4166 13.6489ZM11.5856 12.6803L11.399 13.7179L12.3832 13.8949L12.5698 12.8573L11.5856 12.6803ZM11.4359 11.7552L11.5822 12.8359L12.5732 12.7017L12.4269 11.621L11.4359 11.7552ZM11.0459 11.8066L11.709 12.1359L12.1538 11.2403L11.4907 10.911L11.0459 11.8066ZM11.1098 10.8169L10.9211 10.999L11.6155 11.7186L11.8042 11.5365L11.1098 10.8169ZM10.8251 10.5756L10.9669 11.2759L11.9471 11.0775L11.8053 10.3772L10.8251 10.5756ZM11.495 9.66165L10.9889 10.0976L11.6415 10.8553L12.1476 10.4194L11.495 9.66165ZM11.3494 9.7167L11.3235 9.994L12.3191 10.087L12.345 9.8097L11.3494 9.7167ZM10.877 8.97167L11.4027 9.99217L12.2917 9.53423L11.766 8.51373L10.877 8.97167ZM10.6847 9.12397L11.2223 9.23277L11.4207 8.25264L10.8831 8.14384L10.6847 9.12397ZM10.1661 8.35883L10.3093 8.79113L11.2585 8.47668L11.1153 8.04438L10.1661 8.35883ZM9.94801 8.33605L10.3601 8.61545L10.9213 7.78775L10.5092 7.50835L9.94801 8.33605ZM9.67828 8.61971L10.3788 8.39911L10.0784 7.44529L9.37791 7.66589L9.67828 8.61971ZM8.92996 8.47498L9.37436 8.61858L9.68183 7.66702L9.23743 7.52342L8.92996 8.47498ZM8.4225 8.02025L8.71639 8.33845L9.45099 7.65995L9.15709 7.34175L8.4225 8.02025ZM8.22515 7.3361L8.29665 7.7635L9.28294 7.5985L9.21144 7.1711L8.22515 7.3361ZM8.49549 6.66695L8.29439 6.98845L9.1422 7.51875L9.3433 7.19725L8.49549 6.66695ZM8.4214 5.88774L8.4194 6.93114L9.41939 6.93306L9.42139 5.88966L8.4214 5.88774ZM9.15159 5.09021L8.62099 5.48901L9.2218 6.28839L9.7524 5.88959L9.15159 5.09021ZM9.92468 4.82066L9.30448 5.01216L9.59951 5.96765L10.2197 5.77615L9.92468 4.82066ZM10.2929 4.38932L9.72457 4.93902L10.4198 5.65779L10.9881 5.10809L10.2929 4.38932ZM10.18 3.89523L10.141 4.72523L11.1399 4.77217L11.1789 3.94217L10.18 3.89523ZM11.3459 2.5057L10.3193 3.5719L11.0397 4.2655L12.0663 3.1993L11.3459 2.5057ZM12.1674 1.3633L11.3012 2.5592L12.111 3.1458L12.9772 1.9499L12.1674 1.3633ZM12.1782 1.17017L12.0871 1.53567L13.0574 1.77753L13.1486 1.41203L12.1782 1.17017ZM12.1404 1.56131L12.4073 1.72051L12.9195 0.86169L12.6526 0.70249L12.1404 1.56131ZM11.8636 1.70723L12.4625 1.62753L12.3305 0.636271L11.7316 0.715971L11.8636 1.70723ZM11.4233 1.94039L12.0105 1.66399L11.5847 0.759213L10.9975 1.03561L11.4233 1.94039ZM10.5915 1.13578L10.7292 1.62378L11.6916 1.35222L11.5539 0.864217L10.5915 1.13578ZM10.623 1.83551L11.322 1.43341L10.8234 0.566594L10.1244 0.968695L10.623 1.83551ZM10.6835 1.99946L10.8418 1.57786L9.9056 1.22635L9.7473 1.64795L10.6835 1.99946ZM10.0277 2.36634L10.3054 2.31554L10.1254 1.33186L9.84772 1.38266L10.0277 2.36634ZM10.1542 2.53062L10.3787 2.11002L9.49664 1.63898L9.27204 2.05958L10.1542 2.53062ZM8.95261 3.43012L9.99781 2.70612L9.42839 1.88408L8.38319 2.60808L8.95261 3.43012ZM8.18921 4.49491L9.06841 3.31841L8.26738 2.71979L7.38818 3.89629L8.18921 4.49491ZM8.23847 4.53984L8.28197 4.27734L7.29542 4.11386L7.25192 4.37636L8.23847 4.53984ZM7.40702 5.65107L8.13041 4.77686L7.35998 4.13934L6.63659 5.01354L7.40702 5.65107ZM2.75337 9.62268L2.92437 10.1622L3.87763 9.86003L3.70663 9.32053L2.75337 9.62268ZM3.43169 10.1895L3.67779 9.69406L2.78221 9.24916L2.53611 9.74455L3.43169 10.1895ZM3.45357 9.51388L3.03647 9.46978L2.93132 10.4642L3.34843 10.5083L3.45357 9.51388ZM7.73813 45.7058L7.51743 44.8702L6.55059 45.1256L6.77128 45.9612L7.73813 45.7058ZM7.14847 46.4183L7.44557 46.2956L7.06384 45.3714L6.76674 45.4941L7.14847 46.4183ZM6.39155 45.434L6.46115 46.0156L7.45407 45.8968L7.38447 45.3152L6.39155 45.434ZM6.5678 44.8172L6.4218 45.1939L7.35422 45.5553L7.50022 45.1786L6.5678 44.8172ZM29.024 9.7H32.6V8.7H29.024V9.7ZM32.1065 9.28037L34.8425 26.0804L35.8295 25.9196L33.0935 9.11963L32.1065 9.28037ZM35.336 25.5H32.696V26.5H35.336V25.5ZM33.1909 25.9288L32.7109 22.5928L31.7211 22.7352L32.2011 26.0712L33.1909 25.9288ZM31.716 22.664V22.712H32.716V22.664H31.716ZM32.216 22.212H29.216V23.212H32.216V22.212ZM28.7212 22.6398L28.2412 25.9278L29.2308 26.0722L29.7108 22.7842L28.7212 22.6398ZM28.736 25.5H26.288V26.5H28.736V25.5ZM26.7815 26.0804L29.5175 9.28037L28.5305 9.11963L25.7945 25.9196L26.7815 26.0804ZM32.3991 20.3619L31.2231 12.0579L30.2329 12.1981L31.4089 20.5021L32.3991 20.3619ZM30.728 11.628H30.68V12.628H30.728V11.628ZM30.1847 12.0593L29.0327 20.3633L30.0233 20.5007L31.1753 12.1967L30.1847 12.0593ZM29.528 20.932H31.904V19.932H29.528V20.932ZM38.4168 9.7H42.3288V8.7H38.4168V9.7ZM42.3288 9.7C43.6234 9.7 44.4563 10.0059 44.9468 10.509L45.6628 9.81095C44.9054 9.03407 43.7543 8.7 42.3288 8.7V9.7ZM44.9513 10.5136C45.4443 11.0066 45.7408 11.8206 45.7408 13.064H46.7408C46.7408 11.6834 46.4133 10.5614 45.6584 9.80645L44.9513 10.5136ZM45.7408 13.064V14.096H46.7408V13.064H45.7408ZM45.7408 14.096C45.7408 14.9179 45.6044 15.5429 45.3655 16.0007C45.1324 16.4475 44.7912 16.7568 44.326 16.9442L44.6996 17.8718C45.3864 17.5952 45.9092 17.1205 46.2521 16.4633C46.5893 15.8171 46.7408 15.0181 46.7408 14.096H45.7408ZM44.0128 17.408V17.456H45.0128V17.408H44.0128ZM44.3691 17.9349C44.8737 18.0863 45.2028 18.3794 45.3979 18.8305L46.3157 18.4335C45.9988 17.7006 45.432 17.2097 44.6565 16.9771L44.3691 17.9349ZM45.4025 18.8408C45.6328 19.3421 45.7648 20.054 45.7648 21.008H46.7648C46.7648 19.978 46.6248 19.1059 46.3111 18.4232L45.4025 18.8408ZM45.7648 21.008V23.96H46.7648V21.008H45.7648ZM45.7648 23.96C45.7648 24.4488 45.781 24.8601 45.8156 25.1883L46.8101 25.0837C46.7806 24.8039 46.7648 24.4312 46.7648 23.96H45.7648ZM45.8159 25.1912C45.854 25.5345 45.9489 25.8722 46.0959 26.2031L47.0097 25.7969C46.9008 25.5518 46.8356 25.3135 46.8098 25.0808L45.8159 25.1912ZM46.5528 25.5H43.8648V26.5H46.5528V25.5ZM44.3363 25.8336C44.2497 25.5881 44.1951 25.366 44.1684 25.1659L43.1772 25.2981C43.2145 25.578 43.288 25.8679 43.3933 26.1664L44.3363 25.8336ZM44.1684 25.1659C44.1414 24.9629 44.1248 24.5618 44.1248 23.936H43.1248C43.1248 24.5582 43.1403 25.0211 43.1772 25.2981L44.1684 25.1659ZM44.1248 23.936V20.864H43.1248V23.936H44.1248ZM44.1248 20.864C44.1248 20.0729 43.9995 19.3807 43.6233 18.9339L42.8584 19.5781C42.9941 19.7393 43.1248 20.1191 43.1248 20.864H44.1248ZM43.6333 18.9462C43.2548 18.4668 42.6419 18.3 41.9688 18.3V19.3C42.5117 19.3 42.7468 19.4372 42.8484 19.5658L43.6333 18.9462ZM41.9688 18.3H41.0568V19.3H41.9688V18.3ZM40.5568 18.8V26H41.5568V18.8H40.5568ZM41.0568 25.5H38.4168V26.5H41.0568V25.5ZM38.9168 26V9.2H37.9168V26H38.9168ZM42.0168 16.9C42.6245 16.9 43.1728 16.7428 43.5569 16.3347L42.8287 15.6493C42.7008 15.7852 42.4652 15.9 42.0168 15.9V16.9ZM43.5464 16.3456C43.958 15.9339 44.1008 15.3133 44.1008 14.624H43.1008C43.1008 15.2147 42.9716 15.5061 42.8393 15.6384L43.5464 16.3456ZM44.1008 14.624V13.328H43.1008V14.624H44.1008ZM44.1008 13.328C44.1008 12.6803 43.9856 12.0967 43.6508 11.6901L42.8788 12.3259C42.992 12.4633 43.1008 12.7597 43.1008 13.328H44.1008ZM43.662 11.7043C43.3284 11.268 42.8171 11.1 42.2568 11.1V12.1C42.6245 12.1 42.7853 12.204 42.8676 12.3117L43.662 11.7043ZM42.2568 11.1H41.0568V12.1H42.2568V11.1ZM40.5568 11.6V16.4H41.5568V11.6H40.5568ZM41.0568 16.9H42.0168V15.9H41.0568V16.9ZM49.8965 9.7H52.5365V8.7H49.8965V9.7ZM52.0365 9.2V23.6H53.0365V9.2H52.0365ZM52.5365 24.1H56.8805V23.1H52.5365V24.1ZM56.3805 23.6V26H57.3805V23.6H56.3805ZM56.8805 25.5H49.8965V26.5H56.8805V25.5ZM50.3965 26V9.2H49.3965V26H50.3965ZM63.6688 25.74C62.4693 25.74 61.6262 25.4024 61.058 24.7946L60.3275 25.4774C61.1353 26.3416 62.2762 26.74 63.6688 26.74V25.74ZM61.058 24.7946C60.4822 24.1786 60.1608 23.2765 60.1608 22.016H59.1608C59.1608 23.4435 59.5273 24.6214 60.3275 25.4774L61.058 24.7946ZM60.1608 22.016V13.184H59.1608V22.016H60.1608ZM60.1608 13.184C60.1608 11.9235 60.4822 11.0214 61.058 10.4054L60.3275 9.72256C59.5273 10.5786 59.1608 11.7565 59.1608 13.184H60.1608ZM61.058 10.4054C61.6262 9.79761 62.4693 9.46 63.6688 9.46V8.46C62.2762 8.46 61.1353 8.85839 60.3275 9.72256L61.058 10.4054ZM63.6688 9.46C64.8682 9.46 65.7113 9.79761 66.2795 10.4054L67.01 9.72256C66.2022 8.85839 65.0613 8.46 63.6688 8.46V9.46ZM66.2795 10.4054C66.8553 11.0214 67.1768 11.9235 67.1768 13.184H68.1768C68.1768 11.7565 67.8102 10.5786 67.01 9.72256L66.2795 10.4054ZM67.1768 13.184V22.016H68.1768V13.184H67.1768ZM67.1768 22.016C67.1768 23.2765 66.8553 24.1786 66.2795 24.7946L67.01 25.4774C67.8102 24.6214 68.1768 23.4435 68.1768 22.016H67.1768ZM66.2795 24.7946C65.7113 25.4024 64.8682 25.74 63.6688 25.74V26.74C65.0613 26.74 66.2022 26.3416 67.01 25.4774L66.2795 24.7946ZM63.6688 24.34C64.2297 24.34 64.7323 24.1657 65.0802 23.7444C65.4131 23.3415 65.5368 22.7923 65.5368 22.184H64.5368C64.5368 22.6797 64.4324 22.9585 64.3093 23.1076C64.2012 23.2383 64.0198 23.34 63.6688 23.34V24.34ZM65.5368 22.184V13.016H64.5368V22.184H65.5368ZM65.5368 13.016C65.5368 12.4077 65.4131 11.8585 65.0802 11.4556C64.7323 11.0343 64.2297 10.86 63.6688 10.86V11.86C64.0198 11.86 64.2012 11.9617 64.3093 12.0924C64.4324 12.2415 64.5368 12.5203 64.5368 13.016H65.5368ZM63.6688 10.86C63.1078 10.86 62.6052 11.0343 62.2573 11.4556C61.9244 11.8585 61.8008 12.4077 61.8008 13.016H62.8008C62.8008 12.5203 62.9051 12.2415 63.0282 12.0924C63.1363 11.9617 63.3177 11.86 63.6688 11.86V10.86ZM61.8008 13.016V22.184H62.8008V13.016H61.8008ZM61.8008 22.184C61.8008 22.7923 61.9244 23.3415 62.2573 23.7444C62.6052 24.1657 63.1078 24.34 63.6688 24.34V23.34C63.3177 23.34 63.1363 23.2383 63.0282 23.1076C62.9051 22.9585 62.8008 22.6797 62.8008 22.184H61.8008ZM73.2324 11.1H70.4724V12.1H73.2324V11.1ZM70.9724 11.6V9.2H69.9724V11.6H70.9724ZM70.4724 9.7H78.6324V8.7H70.4724V9.7ZM78.1324 9.2V11.6H79.1324V9.2H78.1324ZM78.6324 11.1H75.8724V12.1H78.6324V11.1ZM75.3724 11.6V26H76.3724V11.6H75.3724ZM75.8724 25.5H73.2324V26.5H75.8724V25.5ZM73.7324 26V11.6H72.7324V26H73.7324ZM82.649 9.7H86.225V8.7H82.649V9.7ZM85.7315 9.28037L88.4675 26.0804L89.4545 25.9196L86.7185 9.11963L85.7315 9.28037ZM88.961 25.5H86.321V26.5H88.961V25.5ZM86.8159 25.9288L86.3359 22.5928L85.3461 22.7352L85.8261 26.0712L86.8159 25.9288ZM85.341 22.664V22.712H86.341V22.664H85.341ZM85.841 22.212H82.841V23.212H85.841V22.212ZM82.3462 22.6398L81.8662 25.9278L82.8558 26.0722L83.3358 22.7842L82.3462 22.6398ZM82.361 25.5H79.913V26.5H82.361V25.5ZM80.4065 26.0804L83.1425 9.28037L82.1555 9.11963L79.4195 25.9196L80.4065 26.0804ZM86.0241 20.3619L84.8481 12.0579L83.8579 12.1981L85.0339 20.5021L86.0241 20.3619ZM84.353 11.628H84.305V12.628H84.353V11.628ZM83.8097 12.0593L82.6577 20.3633L83.6483 20.5007L84.8003 12.1967L83.8097 12.0593ZM83.153 20.932H85.529V19.932H83.153V20.932ZM26.9699 47.1709L30.9699 36.1709L30.0301 35.8291L26.0301 46.8291L26.9699 47.1709ZM30.7572 36.4287L35.7572 33.4287L35.2428 32.5713L30.2428 35.5713L30.7572 36.4287ZM35 33V54H36V33H35ZM35.9782 54.1461C36.8958 51.1429 38.2723 46.4879 39.4199 42.2816C39.9935 40.1789 40.5111 38.1842 40.8856 36.5625C41.2546 34.9646 41.5 33.6681 41.5 33H40.5C40.5 33.5319 40.287 34.7104 39.9113 36.3375C39.541 37.9408 39.0273 39.9211 38.4551 42.0184C37.311 46.2121 35.9375 50.8571 35.0218 53.8539L35.9782 54.1461ZM41.5 33V29H40.5V33H41.5ZM41 28.5H35.5V29.5H41V28.5ZM35.2226 28.584L26.2226 34.584L26.7774 35.416L35.7774 29.416L35.2226 28.584ZM45.024 34.7H48.6V33.7H45.024V34.7ZM48.1065 34.2804L50.8425 51.0804L51.8295 50.9196L49.0935 34.1196L48.1065 34.2804ZM51.336 50.5H48.696V51.5H51.336V50.5ZM49.1909 50.9288L48.7109 47.5928L47.7211 47.7352L48.2011 51.0712L49.1909 50.9288ZM47.716 47.664V47.712H48.716V47.664H47.716ZM48.216 47.212H45.216V48.212H48.216V47.212ZM44.7212 47.6398L44.2412 50.9278L45.2308 51.0722L45.7108 47.7842L44.7212 47.6398ZM44.736 50.5H42.288V51.5H44.736V50.5ZM42.7815 51.0804L45.5175 34.2804L44.5305 34.1196L41.7945 50.9196L42.7815 51.0804ZM48.3991 45.3619L47.2231 37.0579L46.2329 37.1981L47.4089 45.5021L48.3991 45.3619ZM46.728 36.628H46.68V37.628H46.728V36.628ZM46.1847 37.0593L45.0327 45.3633L46.0233 45.5007L47.1753 37.1967L46.1847 37.0593ZM45.528 45.932H47.904V44.932H45.528V45.932ZM54.4168 34.7H57.0568V33.7H54.4168V34.7ZM56.5568 34.2V48.6H57.5568V34.2H56.5568ZM57.0568 49.1H61.4008V48.1H57.0568V49.1ZM60.9008 48.6V51H61.9008V48.6H60.9008ZM61.4008 50.5H54.4168V51.5H61.4008V50.5ZM54.9168 51V34.2H53.9168V51H54.9168ZM68.3068 50.74C67.1216 50.74 66.2956 50.4094 65.7443 49.8188L65.0133 50.5012C65.8061 51.3506 66.932 51.74 68.3068 51.74V50.74ZM65.7481 49.8229C65.1867 49.2081 64.8708 48.2972 64.8708 47.016H63.8708C63.8708 48.4548 64.2269 49.6399 65.0096 50.4971L65.7481 49.8229ZM64.8708 47.016V34.2H63.8708V47.016H64.8708ZM64.3708 34.7H67.0108V33.7H64.3708V34.7ZM66.5108 34.2V47.208H67.5108V34.2H66.5108ZM66.5108 47.208C66.5108 47.8278 66.6274 48.3931 66.9705 48.7853L67.7231 48.1267C67.6182 48.0069 67.5108 47.7402 67.5108 47.208H66.5108ZM66.982 48.798C67.3377 49.1773 67.8189 49.34 68.3548 49.34V48.34C68.0268 48.34 67.8359 48.2467 67.7116 48.114L66.982 48.798ZM68.3548 49.34C68.8892 49.34 69.3717 49.1777 69.7151 48.7853L68.9625 48.1267C68.8579 48.2463 68.6844 48.34 68.3548 48.34V49.34ZM69.7036 48.798C70.0717 48.4054 70.1988 47.8342 70.1988 47.208H69.1988C69.1988 47.7338 69.086 47.9946 68.974 48.114L69.7036 48.798ZM70.1988 47.208V34.2H69.1988V47.208H70.1988ZM69.6988 34.7H72.2428V33.7H69.6988V34.7ZM71.7428 34.2V47.016H72.7428V34.2H71.7428ZM71.7428 47.016C71.7428 48.2972 71.4269 49.2081 70.8656 49.8229L71.6041 50.4971C72.3867 49.6399 72.7428 48.4548 72.7428 47.016H71.7428ZM70.8693 49.8188C70.3181 50.4094 69.492 50.74 68.3068 50.74V51.74C69.6816 51.74 70.8076 51.3506 71.6003 50.5012L70.8693 49.8188ZM77.9871 36.1H75.2271V37.1H77.9871V36.1ZM75.7271 36.6V34.2H74.7271V36.6H75.7271ZM75.2271 34.7H83.3871V33.7H75.2271V34.7ZM82.8871 34.2V36.6H83.8871V34.2H82.8871ZM83.3871 36.1H80.6271V37.1H83.3871V36.1ZM80.1271 36.6V51H81.1271V36.6H80.1271ZM80.6271 50.5H77.9871V51.5H80.6271V50.5ZM78.4871 51V36.6H77.4871V51H78.4871ZM26 35V47H27V35H26Z" fill="#333333" mask="url(#path-1-outside-1_2_651)"/>
</svg>
