<svg width="88" height="55" viewBox="0 0 88 55" fill="none" xmlns="http://www.w3.org/2000/svg">
<path fill-rule="evenodd" clip-rule="evenodd" d="M6.0218 4.33231L5.3791 4.56661L4.8097 5.29321L4.8968 5.46811L4.2557 6.45621L3.7683 7.37221L3.064 7.85021L3.0977 8.20591L2.8646 8.6202L3.1633 8.92741L3.2122 9.4271L2.6396 9.439L2.6889 10.66L2.0718 11.0981L2.4056 12.1908L2.1351 13.485L1.5449 14.1664L1.5292 14.785L1.1693 15.4656L0.845501 15.7462L0.152798 17.0042L0.0396996 17.5824L0.321201 17.9176L0.585098 18.3109L0.520901 18.9019L0.0550995 19.511L0 19.8697L0.474899 20.4113L0.655998 20.1767L1.4305 19.8544L1.8007 20.1706L1.6938 20.7176L2.0065 21.7832L1.6484 22.2202L1.7303 22.9378L2.1098 22.9045L3.9832 23.5796L4.1884 24.1427L3.8417 24.6126L3.506 24.9158L3.5574 25.1805L3.0834 25.2467L2.6092 25.679L2.6771 26.4831L2.3008 27.6901L2.4278 28.3654L2.2627 28.732L2.8228 29.2899L3.1565 31.1303L3.9102 31.451L3.9096 32.0813L4.4209 32.1561L4.5906 32.3866L5.399 32.1996L5.6247 32.3851L5.8491 33.0852L5.5412 33.7283L5.3784 34.728L5.1903 35.1095L5.1249 35.8132L5.2844 36.0745L5.121 36.5861L5.4805 36.551L5.6227 37.0139L5.5497 37.5401L5.2623 38.0176L5.2553 38.4988L5.25761 40.0584L4.58491 41.9431L5.07531 42.6219L5.03181 43.0053L6.04061 43.6538L6.13841 43.8806L7.29331 44.1788L8.11321 44.6765L8.82151 46.0665L8.83731 46.5436L9.39641 47.0638L9.69041 48.0312L10.2616 48.9329L10.5072 49.9095L11.08 50.4546L11.5973 50.7785L13.356 51.343L14.722 51.9926L14.8694 52.5826L14.3792 52.7744L14.4304 52.991L15.5061 53.6139L15.9184 53.3228L16.4824 53.7136L16.925 53.5631L17.3219 53.6425L18.2896 54.1887L18.4079 54.0517L17.9294 53.5685L17.0949 53.1339L16.5131 52.4908L15.8268 52.0296L15.4319 51.4087L14.7711 50.9899L14.1055 50.3288L13.6918 49.251L12.6559 47.6732L12.2358 47.1973L11.585 45.7239L11.2942 45.4903L10.7318 43.9138L10.1638 42.9369L9.86661 41.1637L9.28611 39.793L8.92411 39.3117L8.55121 38.3126L8.64581 37.1705L8.50871 36.9807L8.82791 36.4876L9.16901 36.449L9.10521 35.2583L9.14709 34.5902L8.96939 33.9228L9.04369 33.5588L8.53009 33.3732L8.19719 32.9576L8.37169 32.1911L8.89709 31.4768L8.78469 30.7601L9.10269 30.3603L9.71329 30.2008L9.92789 29.9616L10.6947 30.1408L11.1994 30.0279L12.5759 30.4471L12.9043 30.2758L13.4837 30.4383L13.6187 30.8931L13.9055 30.8379L14.3165 31.1482L15.3469 31.442L17.1261 31.2746L17.4968 31.4944L18.1284 31.327L18.8712 31.5436L19.161 32.175L19.7444 32.4272L20.1892 32.8109L21.2083 32.8476L22.1828 33.203L22.4601 33.163L23.1514 33.4199L23.5639 33.4307L24.857 33.8316L25.4836 33.7278L24.9967 33.2638L23.988 32.8004L23.4073 32.784L22.857 32.5485L22.2365 32.4897L22.0238 32.065L22.3854 31.3056L22.3824 30.3022L22.0637 29.8098L22.2504 29.5433L22.4342 29.1414L22.2461 28.7821L21.8955 28.8803L21.2858 28.6388L20.3909 28.579L19.539 28.0549L18.8517 27.9673L18.0258 27.3628L16.6354 26.9467L15.8871 26.869L15.5956 26.2708L14.866 25.4592L14.7041 25.6125L14.2555 25.2056L13.9078 24.6259L14.0287 24.3163L14.6273 24.1628L14.7967 23.7251L15.363 24.0923L15.8736 24.1705L15.8489 23.9049L15.3476 23.5175L15.3271 23.2829L15.7456 22.8186L16.2731 22.5011L17.1254 22.5183L17.6286 22.1904L18.2222 22.1436L18.5961 21.7917L19.3093 21.4447L19.8267 21.3884L19.9751 21.1237L21.2104 20.1555L22.3245 19.794L22.5319 18.87L22.4584 17.5211L22.9666 16.5204L22.7793 15.9981L23.2849 15.617L23.4407 14.9642L23.3431 14.5347L23.5987 14.0566L23.1861 14.03L22.4779 13.2056L22.3139 12.2273L22.5411 12.1576L22.5598 11.6578L23.1599 11.6977L23.0123 11.0392L22.0424 10.7447L20.9843 11.0642L20.248 11.0742L19.8921 11.4416L19.2628 11.7473L19.0331 11.4378L18.668 11.401L17.6701 11.8305L16.8381 12.3224L16.4265 13.0052L15.6723 13.445L14.7064 13.684L14.2648 14.1398L13.8027 14.2084L13.3587 14.6138L12.546 15.9343L12.0954 16.0271L12.0017 16.691L13.0013 16.5724L13.5927 16.768L13.9195 17.3617L13.8434 18.1146L13.3464 18.8064L12.7002 18.7536L11.0371 18.9552L10.1392 19.4603L10.0719 19.8832L9.6393 20.6436L9.3055 20.893L9.3609 21.3621L9.16999 21.5704L9.2676 23.1104L8.60519 23.4986L8.4407 23.9348L7.7575 24.3582L6.9551 24.5148L6.1968 24.3128L5.8755 23.7917L5.4129 23.5475L5.1543 23.0738L4.4974 22.9141L3.9907 21.4271L4.3488 20.8086L4.49839 20.4925L5.4255 20.2398L6.2748 19.7786L6.842 19.1135L7.0213 19.1386L7.4328 18.4221L7.96989 18.289L8.7892 18.3655L8.77259 17.9838L8.9921 17.1708L9.51089 16.7723L9.98809 16.1859L10.0959 15.6421L10.6321 15.5543L10.3628 15.2135L10.2486 14.6342L10.4779 14.1053L10.8845 13.8324L10.6328 13.5844L10.8911 12.8064L11.0777 11.7688L10.9314 10.6881L10.2683 10.3588L10.457 10.1767L10.3152 9.4764L10.8213 9.0405L10.8472 8.7632L10.3215 7.7427L9.7839 7.6339L9.6407 7.2016L9.2286 6.9222L8.5281 7.1428L8.08369 6.9992L7.78979 6.681L7.7183 6.2536L7.9194 5.9321L7.92139 4.8887L8.452 4.4899L9.0722 4.2984L9.6405 3.7487L9.6795 2.9187L10.7061 1.8525L11.5723 0.656601L11.6634 0.291101L11.3965 0.131901L10.7976 0.211601L10.2104 0.488001L10.0727 0L9.3737 0.402101L9.2154 0.823701L8.93769 0.874502L8.7131 1.2951L7.6679 2.0191L6.7887 3.1956L6.7452 3.4581L6.0218 4.33231Z" fill="white"/>
<path d="M2.401 9.01111L2.23 8.47161L1.9839 8.967L2.401 9.01111Z" fill="white"/>
<path d="M6.03401 43.9979L6.25471 44.8335L5.95761 44.9562L5.88801 44.3746L6.03401 43.9979Z" fill="white"/>
<path d="M28.024 8.2H31.6L34.336 25H31.696L31.216 21.664V21.712H28.216L27.736 25H25.288L28.024 8.2ZM30.904 19.432L29.728 11.128H29.68L28.528 19.432H30.904Z" fill="white"/>
<path d="M37.4168 8.2H41.3288C42.6888 8.2 43.6808 8.52 44.3048 9.16C44.9288 9.784 45.2408 10.752 45.2408 12.064V13.096C45.2408 14.84 44.6648 15.944 43.5128 16.408V16.456C44.1528 16.648 44.6008 17.04 44.8568 17.632C45.1288 18.224 45.2648 19.016 45.2648 20.008V22.96C45.2648 23.44 45.2808 23.832 45.3128 24.136C45.3448 24.424 45.4248 24.712 45.5528 25H42.8648C42.7688 24.728 42.7048 24.472 42.6728 24.232C42.6408 23.992 42.6248 23.56 42.6248 22.936V19.864C42.6248 19.096 42.4968 18.56 42.2408 18.256C42.0008 17.952 41.5768 17.8 40.9688 17.8H40.0568V25H37.4168V8.2ZM41.0168 15.4C41.5448 15.4 41.9368 15.264 42.1928 14.992C42.4648 14.72 42.6008 14.264 42.6008 13.624V12.328C42.6008 11.72 42.4888 11.28 42.2648 11.008C42.0568 10.736 41.7208 10.6 41.2568 10.6H40.0568V15.4H41.0168Z" fill="white"/>
<path d="M48.8965 8.2H51.5365V22.6H55.8805V25H48.8965V8.2Z" fill="white"/>
<path d="M62.6688 25.24C61.3728 25.24 60.3808 24.872 59.6928 24.136C59.0048 23.4 58.6608 22.36 58.6608 21.016V12.184C58.6608 10.84 59.0048 9.8 59.6928 9.064C60.3808 8.328 61.3728 7.96 62.6688 7.96C63.9648 7.96 64.9568 8.328 65.6448 9.064C66.3328 9.8 66.6768 10.84 66.6768 12.184V21.016C66.6768 22.36 66.3328 23.4 65.6448 24.136C64.9568 24.872 63.9648 25.24 62.6688 25.24ZM62.6688 22.84C63.5808 22.84 64.0368 22.288 64.0368 21.184V12.016C64.0368 10.912 63.5808 10.36 62.6688 10.36C61.7568 10.36 61.3008 10.912 61.3008 12.016V21.184C61.3008 22.288 61.7568 22.84 62.6688 22.84Z" fill="white"/>
<path d="M72.2324 10.6H69.4724V8.2H77.6324V10.6H74.8724V25H72.2324V10.6Z" fill="white"/>
<path d="M81.649 8.2H85.225L87.961 25H85.321L84.841 21.664V21.712H81.841L81.361 25H78.913L81.649 8.2ZM84.529 19.432L83.353 11.128H83.305L82.153 19.432H84.529Z" fill="white"/>
<path d="M25.5 46V34L34.5 28H40V32C40 34.4 36.3333 47 34.5 53V32L29.5 35L25.5 46Z" fill="white"/>
<path d="M44.024 33.2H47.6L50.336 50H47.696L47.216 46.664V46.712H44.216L43.736 50H41.288L44.024 33.2ZM46.904 44.432L45.728 36.128H45.68L44.528 44.432H46.904Z" fill="white"/>
<path d="M53.4168 33.2H56.0568V47.6H60.4008V50H53.4168V33.2Z" fill="white"/>
<path d="M67.3068 50.24C66.0268 50.24 65.0508 49.88 64.3788 49.16C63.7068 48.424 63.3708 47.376 63.3708 46.016V33.2H66.0108V46.208C66.0108 46.784 66.1228 47.2 66.3468 47.456C66.5868 47.712 66.9228 47.84 67.3548 47.84C67.7868 47.84 68.1148 47.712 68.3388 47.456C68.5788 47.2 68.6988 46.784 68.6988 46.208V33.2H71.2428V46.016C71.2428 47.376 70.9068 48.424 70.2348 49.16C69.5628 49.88 68.5868 50.24 67.3068 50.24Z" fill="white"/>
<path d="M76.9871 35.6H74.2271V33.2H82.3871V35.6H79.6271V50H76.9871V35.6Z" fill="white"/>
</svg>
