<svg width="25" height="24" viewBox="0 0 25 24" fill="none" xmlns="http://www.w3.org/2000/svg">
<path d="M12.961 22C11.941 22 11.581 21.842 10.86 21.527C8.2 20.365 3.961 17.63 3.961 11.991V10.417C3.961 7.219 3.961 5.62 4.339 5.083C4.716 4.545 6.219 4.03 9.226 3L9.799 2.804C11.366 2.268 12.149 2 12.961 2" stroke="black" stroke-width="1.5"/>
<path opacity="0.5" d="M12.961 22C13.981 22 14.341 21.842 15.062 21.527C17.722 20.365 21.962 17.629 21.962 11.991V10.417C21.962 7.219 21.962 5.62 21.584 5.083C21.206 4.545 19.703 4.03 16.696 3.001L16.123 2.805C14.556 2.268 13.773 2 12.961 2" stroke="black" stroke-width="1.5"/>
</svg>
