<svg width="25" height="24" viewBox="0 0 25 24" fill="none" xmlns="http://www.w3.org/2000/svg">
<path d="M10.961 10C13.1701 10 14.961 8.20914 14.961 6C14.961 3.79086 13.1701 2 10.961 2C8.75186 2 6.961 3.79086 6.961 6C6.961 8.20914 8.75186 10 10.961 10Z" stroke="black" stroke-width="1.5"/>
<path opacity="0.5" d="M18.961 17.5C18.961 19.985 18.961 22 10.961 22C2.961 22 2.961 19.985 2.961 17.5C2.961 15.015 6.543 13 10.961 13C15.379 13 18.961 15.015 18.961 17.5Z" stroke="black" stroke-width="1.5"/>
<path d="M19.961 2C19.961 2 21.961 3.2 21.961 6C21.961 8.8 19.961 10 19.961 10M17.961 4C17.961 4 18.961 4.6 18.961 6C18.961 7.4 17.961 8 17.961 8" stroke="black" stroke-width="1.5" stroke-linecap="round"/>
</svg>
